<svg xmlns="http://www.w3.org/2000/svg" viewBox="0 0 128 102.73"><defs><style>.cls-1{fill:#514949;}</style></defs><g id="レイヤー_2" data-name="レイヤー 2"><g id="_1" data-name="1"><path class="cls-1" d="M89.68,46.53a2.47,2.47,0,0,0-3.06,1.7,4.62,4.62,0,0,1-7.24,2.38,4.7,4.7,0,0,1-1.63-2.42A2.48,2.48,0,0,0,73,49.5a9.57,9.57,0,0,0,18.42.09A2.47,2.47,0,0,0,89.68,46.53Z"/><path class="cls-1" d="M55,49.59a2.48,2.48,0,0,0-4.77-1.36,4.59,4.59,0,0,1-1.63,2.39,4.52,4.52,0,0,1-2.8.94,4.57,4.57,0,0,1-4.43-3.37A2.48,2.48,0,0,0,36.6,49.5,9.56,9.56,0,0,0,55,49.59Z"/><path class="cls-1" d="M77,69.2A16,16,0,0,1,51,69.2a2.48,2.48,0,1,0-4,2.91,20.93,20.93,0,0,0,34,0,2.48,2.48,0,1,0-4-2.9Z"/><path class="cls-1" d="M123.5,45.07a15.33,15.33,0,0,0-9.75-4.43,51.3,51.3,0,0,0-100.39.08,15.35,15.35,0,0,0,2,30.56c.3,0,.58,0,.88-.06a51.32,51.32,0,0,0,94.7,0,16,16,0,0,0,1.72.11A15.35,15.35,0,0,0,123.5,45.07ZM71.2,7.76a10.39,10.39,0,0,1,.78,1,15.17,15.17,0,0,1,2.26,8.59,36.49,36.49,0,0,1-2.57,12.42c-6-4.8-9.39-9.22-11.31-12.87a19,19,0,0,1-2.48-8.83c0-.23,0-.42,0-.6a44.12,44.12,0,0,1,5.67-.41A44.64,44.64,0,0,1,71.2,7.76ZM56.6,18.9a37.1,37.1,0,0,0,4.45,6.51c-1.92-.77-3.84-1.5-5.64-2.26a22.38,22.38,0,0,1-7.62-4.69,10.21,10.21,0,0,1-2.16-3.36,12.79,12.79,0,0,1-.78-3.85,43.71,43.71,0,0,1,8.78-3A23.41,23.41,0,0,0,56.6,18.9Zm61.89,42.87a8.21,8.21,0,0,1-5.84,2.43,8.44,8.44,0,0,1-2.74-.48l-3.35-1.18-1.17,3.36a44.28,44.28,0,0,1-83.57.23L20.72,63l-3.18.87a8.27,8.27,0,0,1-10.46-8,8.26,8.26,0,0,1,8.27-8.26,6.2,6.2,0,0,1,.66,0L19.3,48l.49-3.26A44.2,44.2,0,0,1,34.56,17.91a43.66,43.66,0,0,1,6.25-4.53,15.35,15.35,0,0,0,.9,3.36A14.12,14.12,0,0,0,44.36,21a21.73,21.73,0,0,0,6.77,4.86c3.73,1.83,7.76,3.1,11.15,4.68a22.62,22.62,0,0,1,4.46,2.63,10.58,10.58,0,0,1,2.93,3.42,2.15,2.15,0,0,0,1.94,1.15,2.13,2.13,0,0,0,1.88-1.24c3.67-8,5-14.22,5-19.14A21.24,21.24,0,0,0,77,9.2a44.2,44.2,0,0,1,30.37,35.59l.52,3.52,3.52-.54a8.36,8.36,0,0,1,1.25-.1,8.26,8.26,0,0,1,5.84,14.1Z"/></g></g></svg>