<svg xmlns="http://www.w3.org/2000/svg" viewBox="0 0 128 128"><defs><style>.cls-1{fill:#514949;}</style></defs><g id="レイヤー_2" data-name="レイヤー 2"><g id="_1" data-name="1"><path class="cls-1" d="M41.33,54.3l14,10.78A8.78,8.78,0,0,0,72.8,64c0-.19,0-.36,0-.55L93.22,39.23a3.41,3.41,0,1,0-5-4.5L68.06,56.23a8.52,8.52,0,0,0-8.37.14L46.53,47.21c-1.69-1.25-4.24-.67-5.67,1.29A4.13,4.13,0,0,0,41.33,54.3Z"/><path class="cls-1" d="M64,0a5.08,5.08,0,1,0,0,10.16A53.85,53.85,0,1,1,18.83,34.71l4.72,3.53a1.87,1.87,0,0,0,2.95-1.12l3.17-15a5,5,0,0,0,.67-3.18l1.44-6.79a1.87,1.87,0,0,0-2.72-2L6.61,22.26a1.86,1.86,0,0,0-1,1.51,1.89,1.89,0,0,0,.74,1.64l4.29,3.21A64,64,0,1,0,64,0Z"/></g></g></svg>