<svg xmlns="http://www.w3.org/2000/svg" viewBox="0 0 128 128"><defs><style>.cls-1{fill:#877b6d;}.cls-2,.cls-5,.cls-9{fill:#040000;}.cls-2{opacity:0.1;}.cls-3{fill:#deca94;}.cls-4{fill:#fff;}.cls-5{opacity:0.07;}.cls-6{fill:#3b3b44;}.cls-7{fill:#fcf4dd;}.cls-8{fill:#494849;}.cls-9{opacity:0.04;}</style></defs><g id="レイヤー_2" data-name="レイヤー 2"><g id="_1" data-name="1"><rect class="cls-1" width="128" height="128"/><polygon class="cls-2" points="117.22 54.23 101.34 38.35 97.68 34.69 94.25 31.26 92.63 29.64 75.94 44.56 77.47 46.26 75.94 47.63 72.11 51.05 73.93 53.08 72.41 53.84 72.4 53.84 60.25 54.33 51.31 45.39 52.06 44.56 35.81 30.04 11.78 54.08 21.66 63.96 38.5 80.81 43.94 86.25 48.69 91 49.29 91.6 50.71 93.02 53.7 96 85.7 128 128 128 128 65.01 117.22 54.23"/><path class="cls-3" d="M92.6,67.69l-2,4h0l-3.32,6.53h0l-.09.19-.2.39L81.6,83.57h0l-.14.13-5.81,5.2-.08.06-5,4.47-.74.67-.17.15-1.12,1-.18.16h0l-4,3.58h0l-.24.21-.06.07-.36.32-.08-.08L61,96.63l-.74-.83-1-1.12-.69-.78-.07-.08L57.79,93l-3.68-4.12-.77-.86h0l-.36-.4-.41-.45,0,0-3.58-4-.77-.84h0l-.77-.85-3.65-4.1L43,76.49l2.23-2,2.37-2.13,6.74-6,4.58-4.09,3.32-3,1.14-1,.66-.32,8.34-4.11h0l1.52-.76,2.41-1.19,5.81,5.65Z"/><polygon class="cls-4" points="110.71 56.97 97.55 68.74 96.03 70.09 92.2 73.52 90.56 71.69 90.56 71.68 79.91 59.78 73.93 53.08 72.11 51.05 75.94 47.63 77.47 46.26 90.64 34.51 97.5 42.19 110.71 56.97"/><polygon class="cls-5" points="114.53 53.55 110.71 56.97 97.55 68.74 96.03 70.09 83.55 56.14 75.94 47.63 77.47 46.26 94.25 31.26 94.45 31.08 97.68 34.69 101.13 38.55 114.53 53.55"/><polygon class="cls-6" points="117.59 53.9 117.22 54.23 99.08 70.45 97.55 68.74 84.99 54.69 77.47 46.26 75.94 44.56 92.63 29.64 94.45 28.02 102.58 37.11 117.59 53.9"/><polygon class="cls-7" points="85.25 76.54 85.16 76.65 80.14 82.27 80.13 82.28 80 82.42 74.83 88.19 74.77 88.27 70.61 92.93 69.67 93.98 69.56 94.11 68.52 95.26 64.61 99.62 64.59 99.66 64.47 99.56 64.09 99.21 60.26 95.8 59.14 94.78 58.42 94.14 58.28 94.02 57.55 93.36 53.62 89.86 53.33 89.6 52.47 88.83 52.47 88.82 51.62 88.06 51.61 88.05 47.51 84.4 46.66 83.64 46.66 83.62 45.8 82.87 41.32 78.86 41.14 78.49 41.02 78.27 40.47 77.21 37.58 71.53 35.66 67.75 51.92 51.95 54.1 53.03 57.24 54.58 58.56 55.23 62.05 56.96 64.06 57.95 64.86 58.33 67.97 61.11 73.57 66.11 78.21 70.26 85.25 76.54"/><polygon class="cls-4" points="55.88 51.05 54.1 53.03 37.58 71.53 35.8 73.52 31.97 70.09 30.45 68.74 17.29 56.97 37.36 34.51 50.53 46.26 52.06 47.63 55.88 51.05"/><polygon class="cls-5" points="52.06 47.63 31.97 70.09 30.45 68.74 17.29 56.97 13.46 53.55 23.25 42.61 33.55 31.08 34.2 31.65 50.53 46.26 52.06 47.63"/><polygon class="cls-8" points="52.06 44.56 50.53 46.26 30.45 68.74 28.91 70.45 21.66 63.96 10.41 53.9 33.55 28.02 35.81 30.04 52.06 44.56"/><path class="cls-7" d="M78.86,70.73a3.87,3.87,0,1,0-5.16,5.78l9.39,8.39a3.87,3.87,0,1,0,5.16-5.77Z"/><path class="cls-7" d="M73.71,76.55a4,4,0,0,0-5.35,6l9.39,8.4a4,4,0,0,0,5.35-6Z"/><path class="cls-7" d="M66.7,80.93a3.87,3.87,0,1,0-5.16,5.77l9.39,8.39a3.87,3.87,0,1,0,5.16-5.77Z"/><path class="cls-7" d="M69.13,98.69a3.88,3.88,0,0,1-4,1.13,4.6,4.6,0,0,1-.52-.19l-.15-.08q-.23-.12-.45-.27h0L63.66,99,61,96.63l-2-1.76-.69-.61-.17-.16-.71-.63L54.27,90.6a3.44,3.44,0,0,1-.64-.74,3.13,3.13,0,0,1-.21-.34A3.7,3.7,0,0,1,53,88.33h0a3.21,3.21,0,0,1-.05-.69,3.58,3.58,0,0,1,.13-.92A3.85,3.85,0,0,1,54,85.13a3.9,3.9,0,0,1,2.33-1.25,4.44,4.44,0,0,1,.63,0h0a4.08,4.08,0,0,1,1,.15l.15,0a3.78,3.78,0,0,1,1.38.8l3.83,3.42.58.51.35.32.52.46,4.11,3.68a3.64,3.64,0,0,1,.5.54,4,4,0,0,1,.23.34.65.65,0,0,1,.09.16,3.79,3.79,0,0,1,.35.86A3.9,3.9,0,0,1,69.13,98.69Z"/><path class="cls-3" d="M62.28,58.36l0,.92-.09,3.66-.08,3.38a3.87,3.87,0,0,1-7.73,0,1.27,1.27,0,0,1,0-.2l.19-8a3.87,3.87,0,0,1,2.7-3.6A3.87,3.87,0,0,1,62.05,57,3.47,3.47,0,0,1,62.28,58.36Z"/><path class="cls-9" d="M70.61,92.93c0,.17,0,.34,0,.51a5.15,5.15,0,0,1-.29,1.07,4.78,4.78,0,0,1-.28.61,5,5,0,0,1-1,1.31l-3.8,3.39a4.6,4.6,0,0,1-.52-.19l0,0-.12-.11q-.23-.12-.45-.27l-.35.32-.07-.08a3.88,3.88,0,0,1-5.71-3.62,3.83,3.83,0,0,1,.47-1.64l-.17-.16-1.12,1-.27.23h0A3.88,3.88,0,0,1,50.62,92h0a3.92,3.92,0,0,1,1.13-2.55l-2,1.77-.24.2a3.87,3.87,0,0,1-6.11-4h0a3.77,3.77,0,0,1,1.19-2l2-1.83h0l-2.18,1.94a3.86,3.86,0,0,1-5.47-.3,3.87,3.87,0,0,1,.31-5.47l1.11-1,9.84-4.35s2.08,1.06,2.46,1.78a2.52,2.52,0,0,1,.09,1.8h.32a5,5,0,0,1,5,4.43,5,5,0,0,1,2.31-.57h.32a5,5,0,0,1,4.64,5.77h.2a5,5,0,0,1,5,5.26Z"/><path class="cls-3" d="M72.84,61.49A12.72,12.72,0,0,0,68,61.11a15.68,15.68,0,0,0-5.79,1.83h0l-3.23-.69-.38-7-.05-.83,13.89-.56h0S78.46,63.08,72.84,61.49Z"/><path class="cls-3" d="M51.6,78.27a3.81,3.81,0,0,1-1.19,2l-2.23,2-1.53,1.36-2.18,1.94a3.86,3.86,0,0,1-5.47-.3,3.87,3.87,0,0,1,.31-5.47L41,78.27l2-1.78,2.23-2a3.87,3.87,0,0,1,6.35,3.77Z"/><path class="cls-3" d="M57,83.25a3.81,3.81,0,0,1-.08.59h0a3.85,3.85,0,0,1-1.08,2h0l-.13.12-2.37,2.11-.31.28-.56.5-.71.63h0l-2,1.77-.24.2a3.87,3.87,0,0,1-6.11-4h0a3.77,3.77,0,0,1,1.19-2l2-1.83,1.52-1.36,2.37-2.11a3.81,3.81,0,0,1,2-.93,3.87,3.87,0,0,1,4.5,4Z"/><path class="cls-3" d="M64.19,87.87a4.22,4.22,0,0,1-.35.89h0a3.88,3.88,0,0,1-.83,1l-4.51,4-.22.2-.09.08-1.12,1-.27.23h0A3.88,3.88,0,0,1,50.62,92h0a3.92,3.92,0,0,1,1.13-2.55h0l.15-.14.56-.5.56-.49.31-.29,2.5-2.22h0l2-1.8,0,0,.19-.16A3.81,3.81,0,0,1,60.32,83a3.88,3.88,0,0,1,3.87,4.83Z"/><path class="cls-3" d="M69.34,93.68s0,0,0,.08a4,4,0,0,1-1,1.67h0l-.15.15L64.34,99h0l-.26.21-.08.06-.4.25a3.88,3.88,0,0,1-5.71-3.62,3.83,3.83,0,0,1,.47-1.64l.06-.11a2.13,2.13,0,0,1,.16-.25,4.24,4.24,0,0,1,.6-.68L63,89.8a3.83,3.83,0,0,1,1.18-.72h0a3.78,3.78,0,0,1,.86-.23,3.88,3.88,0,0,1,4.28,4.83Z"/><path class="cls-9" d="M47.49,92.2a3.83,3.83,0,0,0,2-.77l.24-.2,2-1.77A3.92,3.92,0,0,0,50.62,92h0a3.88,3.88,0,0,0,6.18,3.31h0l.27-.23,1.12-1,.17.16a3.83,3.83,0,0,0-.47,1.64,3.88,3.88,0,0,0,5.71,3.62l.07.08.35-.32q.23.15.45.27l.12.11,0,0a4.6,4.6,0,0,0,.52.19A3.87,3.87,0,0,0,70,95.12a4.78,4.78,0,0,0,.28-.61l.66.58a3.87,3.87,0,0,0,5.71-5.15l1.11,1a4,4,0,0,0,5.35-6l-1.52-1.35,0,0,1.49,1.33a3.87,3.87,0,1,0,5.16-5.77l-1-.91,3.33-6.54,1.64,1.84,5.35-4.78,1.53,1.71,18.51-16.54-15-16.8Z"/></g></g></svg>