<svg xmlns="http://www.w3.org/2000/svg" viewBox="0 0 128 128"><defs><style>.cls-1{fill:#fbfaf7;}.cls-2{fill:#040000;opacity:0.1;}.cls-3{fill:#fbe6b7;}.cls-4{fill:#595a59;}.cls-5{fill:#75b56f;}.cls-6{fill:#358c4e;}.cls-7{fill:#c55b3c;}.cls-8{fill:#eaf1be;}</style></defs><g id="レイヤー_2" data-name="レイヤー 2"><g id="_1" data-name="1"><rect class="cls-1" width="128" height="128"/><polygon class="cls-2" points="128 57.4 128 128 45.91 128 23.39 105.47 22.54 104.63 24.13 99.34 25.05 96.69 36.13 85.61 45.95 75.79 71.19 50.55 87.68 34.06 96.17 25.56 128 57.4"/><path class="cls-3" d="M55.39,85.21,41.22,99.38l-.18.18-12.37,4.32a10.1,10.1,0,0,0-1.89-2.66,9.79,9.79,0,0,0-2.65-1.88l.92-2.65L28.44,87,42.79,72.63l9.5,9.49Z"/><path class="cls-4" d="M28.67,103.88l-5.28,1.59-1.21.36.36-1.2,1.59-5.29a9.79,9.79,0,0,1,2.65,1.88A10.1,10.1,0,0,1,28.67,103.88Z"/><polygon class="cls-5" points="72.25 49.35 36.16 85.45 34.78 93.22 42.55 91.84 42.55 91.86 78.65 55.75 72.25 49.35"/><polygon class="cls-6" points="69.16 46.26 28.64 86.78 36.16 85.45 72.25 49.35 69.16 46.26"/><polygon class="cls-5" points="96.34 25.27 71.13 50.48 77.53 56.88 102.7 31.71 105.79 34.8 105.83 34.77 96.34 25.27"/><rect class="cls-6" x="64.36" y="34.14" width="35.65" height="4.38" transform="translate(-1.62 68.76) rotate(-45)"/><rect class="cls-6" x="73.86" y="43.65" width="35.59" height="4.38" transform="translate(-5.57 78.24) rotate(-45)"/><polygon class="cls-6" points="42.55 91.86 41.21 99.38 81.75 58.85 78.65 55.75 42.55 91.86"/><rect class="cls-7" x="74.78" y="39.31" width="18.79" height="9.05" transform="translate(-6.34 72.36) rotate(-45)"/><rect class="cls-7" x="70.03" y="36.9" width="18.79" height="4.38" transform="translate(-4.38 67.61) rotate(-45)"/><rect class="cls-7" x="79.52" y="46.39" width="18.79" height="4.38" transform="translate(-8.31 77.1) rotate(-45)"/><path class="cls-8" d="M85.12,47.51l.9-.89L81.41,42l-.9.9,1.88,1.88-1.56,1.56L79,44.47l-.9.89L82.66,50l.9-.9-1.93-1.93,1.56-1.56Z"/><path class="cls-8" d="M89.56,41.52a2.2,2.2,0,0,0-.45-.64,1.88,1.88,0,0,0-.51-.37,1.41,1.41,0,0,0-.57-.14h-.27l-.32.09A1.52,1.52,0,0,0,87,38.92a1.93,1.93,0,0,0-.63-.42,1.46,1.46,0,0,0-.68-.11,1.63,1.63,0,0,0-.7.19,2.17,2.17,0,0,0-.69.5l-1.85,1.85,4.61,4.61L89,43.61a2.38,2.38,0,0,0,.5-.68,1.69,1.69,0,0,0,0-1.41Zm-5.37-.69.88-.88a.94.94,0,0,1,.57-.3.84.84,0,0,1,.56.23.72.72,0,0,1,.21.56.79.79,0,0,1-.29.57l-.87.88Zm3.94,2.06-.95,1L86.05,42.7l.94-.93a.94.94,0,0,1,.59-.3.79.79,0,0,1,.57.26.75.75,0,0,1,.26.57A.82.82,0,0,1,88.13,42.89Z"/></g></g></svg>