<svg xmlns="http://www.w3.org/2000/svg" viewBox="0 0 128 128"><defs><style>.cls-1{fill:#fbfaf7;}.cls-13,.cls-2{fill:#040000;}.cls-12,.cls-2{opacity:0.1;}.cls-3{fill:#b28d61;}.cls-4{fill:#c8a373;}.cls-10,.cls-5{fill:#6a573f;}.cls-12,.cls-6{fill:#fff;}.cls-7{fill:#c4e5e1;}.cls-8{fill:#e5e5e4;}.cls-9{fill:#d4b58f;}.cls-10{opacity:0.2;}.cls-11{fill:#f4eea8;}.cls-13{opacity:0.04;}</style></defs><g id="レイヤー_2" data-name="レイヤー 2"><g id="_1" data-name="1"><rect class="cls-1" width="128" height="128"/><path class="cls-2" d="M128,57.55V128H48.63L22.49,101.85l-.08-.06L17.74,97.1l-.11-4.5-.5-20.78a4.24,4.24,0,0,1,0-.51l0-1.64a4.17,4.17,0,0,1,1.7-3.17V63a4.08,4.08,0,0,1,.42-1.81l.87-5.07L22.07,44.8l.23-1.31a6.5,6.5,0,0,1,6.41-5.4h1.78L30.4,25.75H96.2l1.39,1.39Z"/><path class="cls-3" d="M109.17,63.59l-2.46,0-5.15.06-4.24.07-27.8.46v.06l-2.46,0-2.46,0v-.06l-.6,0-33.32-.44-4.24-.07-5.15-.06-2.46,0,.42-2.44.87-5.07L22.07,44.8l.23-1.31a6.5,6.5,0,0,1,6.41-5.4H99.29a6.5,6.5,0,0,1,6.41,5.4l.23,1.31,1.95,11.28.87,5.07Z"/><path class="cls-4" d="M109.17,63V79.78A4.23,4.23,0,0,1,105,84H23.05a4.23,4.23,0,0,1-4.22-4.23V63a4.08,4.08,0,0,1,.42-1.81,4.2,4.2,0,0,1,3.8-2.41H105a4.2,4.2,0,0,1,3.8,2.41h0s0,0,0,0a1.8,1.8,0,0,1,.16.38,2.67,2.67,0,0,1,.09.26,2.3,2.3,0,0,1,.06.28c0,.13,0,.27.07.41S109.17,62.82,109.17,63Z"/><rect class="cls-5" x="21.29" y="61.2" width="85.42" height="20.34" rx="2.39"/><polygon class="cls-6" points="97.52 35.69 97.51 38.09 97.36 58.74 97.33 61.2 97.32 63.76 97.31 64.59 97.29 66.75 97.27 70.14 30.73 70.14 30.71 66.75 30.69 64.59 30.68 63.76 30.67 61.2 30.64 58.74 30.49 38.09 30.4 25.75 88.29 25.75 97.52 35.69"/><polygon class="cls-7" points="97.6 25.75 97.59 27.14 97.52 35.69 88.29 25.75 97.6 25.75"/><polygon class="cls-8" points="88.69 38.12 39.23 38.12 39.21 33.42 88.72 33.42 88.69 38.12"/><polygon class="cls-8" points="88.63 49.05 39.29 49.05 39.27 44.38 88.66 44.38 88.63 49.05"/><polygon class="cls-8" points="74.6 60.14 39.35 60.14 39.33 55.49 74.61 55.49 74.6 60.14"/><path class="cls-9" d="M110.87,69.67l0,1.64-.52,21.29L110.26,95c0,2.79-3.47,5.07-7.71,5.07H25.45c-4.24,0-7.71-2.28-7.71-5.07l-.06-2.41-.52-21.29,0-1.64a4.17,4.17,0,0,1,1.7-3.17,8,8,0,0,1,2.46-1.34,10.77,10.77,0,0,1,3.54-.57h78.34a10.77,10.77,0,0,1,3.54.57,8,8,0,0,1,2.46,1.34h0a5.16,5.16,0,0,1,.87.88,3,3,0,0,1,.22.31,3.28,3.28,0,0,1,.22.37,1.63,1.63,0,0,1,.09.19l.1.25c0,.07,0,.15.06.21a3.54,3.54,0,0,1,.11.44A4.12,4.12,0,0,1,110.87,69.67Z"/><path class="cls-4" d="M110.87,71.82l-.5,20.78-.06,2.29,0,2.24h0v0a2.52,2.52,0,0,1,0,.48c-.37,2.57-3.67,4.61-7.67,4.61H25.45a10.8,10.8,0,0,1-3-.4c-2.57-.7-4.44-2.32-4.71-4.21a2.85,2.85,0,0,1,0-.51v0l-.11-4.5-.5-20.78a4.24,4.24,0,0,1,0-.51,4.42,4.42,0,0,1,1.67-2.66,7.79,7.79,0,0,1,2.46-1.32,10.77,10.77,0,0,1,3.54-.58h78.34a10.77,10.77,0,0,1,3.54.58,7.79,7.79,0,0,1,2.46,1.32,4.42,4.42,0,0,1,1.67,2.66A4.36,4.36,0,0,1,110.87,71.82Z"/><path class="cls-10" d="M51.86,84.48a6.21,6.21,0,1,1-6.21-6.21A6.21,6.21,0,0,1,51.86,84.48Z"/><path class="cls-10" d="M88.55,84.48a6.21,6.21,0,1,1-6.2-6.21A6.21,6.21,0,0,1,88.55,84.48Z"/><rect class="cls-2" x="44.91" y="81.34" width="38.17" height="6.79" rx="3.4"/><rect class="cls-11" x="46.35" y="81.34" width="35.3" height="6.79" rx="3.4"/><path class="cls-12" d="M81.56,83.24a3,3,0,0,0-2.49-1.36H49.73a3,3,0,0,0-3,3v.83a2.77,2.77,0,0,0,.18,1,2.89,2.89,0,0,1-.49-1.62v-.83a3,3,0,0,1,3-3H78.76A3,3,0,0,1,81.56,83.24Z"/><path class="cls-10" d="M110.37,92.6l-.06,2.29,0,2.24h0v0a2.52,2.52,0,0,1,0,.48c-.4,2.55-3.7,4.56-7.67,4.56H25.45a11.81,11.81,0,0,1-3-.41c-2.51-.72-4.34-2.3-4.63-4.15a2.85,2.85,0,0,1,0-.51v0l-.11-4.5h.07l0,1.65c0,2.79,3.47,5.07,7.71,5.07h77.1c4.24,0,7.71-2.28,7.71-5.07l0-1.65Z"/><path class="cls-13" d="M110.84,71.31a4.36,4.36,0,0,1,0,.51l-.51,20.78,0,2.29,0,2.24h0v0a2.52,2.52,0,0,1,0,.48c-.37,2.57-3.67,4.61-7.67,4.61H64V25.75H97.6v1.39l-.07,8.55v2.4h1.78a6.5,6.5,0,0,1,6.41,5.4l.23,1.31,1.95,11.28.88,5.08s0,0,0,0a1.8,1.8,0,0,1,.16.38,2.67,2.67,0,0,1,.09.26,2.3,2.3,0,0,1,.06.28c0,.14,0,.28.07.41s0,.29,0,.43v3.55a5.16,5.16,0,0,1,.87.88,3,3,0,0,1,.22.31,3.28,3.28,0,0,1,.22.37,1.63,1.63,0,0,1,.09.19l.1.25c0,.07,0,.15.06.21a3.54,3.54,0,0,1,.11.44,4.12,4.12,0,0,1,0,.51Z"/></g></g></svg>