<svg xmlns="http://www.w3.org/2000/svg" viewBox="0 0 128 128"><defs><style>.cls-1{fill:#877b6d;}.cls-2,.cls-6{fill:#040000;}.cls-2{opacity:0.1;}.cls-3{fill:#3d3d3d;}.cls-4{fill:#fff;}.cls-5{fill:#6ec098;}.cls-6{opacity:0.06;}.cls-7{fill:#93ceb2;}</style></defs><g id="レイヤー_2" data-name="レイヤー 2"><g id="_1" data-name="1"><rect class="cls-1" width="128" height="128"/><path class="cls-2" d="M128,52.26V128H66L29.89,91.89,26,88a2.77,2.77,0,0,1-.08-.76v-21L44.67,47.41l5-5,.61-.61,9-9,1.59-1.57H106a3.68,3.68,0,0,1,1.11.14Z"/><path class="cls-3" d="M84.73,48.46V83.57a4.71,4.71,0,0,1-4,4.65,3,3,0,0,1-.73.07H58.44L42.7,100.46,43,88.29H26.36a3.09,3.09,0,0,1-.74-.07,4.68,4.68,0,0,1-3.9-3.9,3.74,3.74,0,0,1-.07-.75V48.46a4.71,4.71,0,0,1,4.71-4.71H80A4.72,4.72,0,0,1,84.73,48.46Z"/><path class="cls-4" d="M106.35,32.18V76.71a4.64,4.64,0,0,1-4.64,4.64H34.79a4.63,4.63,0,0,1-4.63-4.64V32.18a4.63,4.63,0,0,1,4.63-4.64h66.92a4.12,4.12,0,0,1,1.11.14,4.59,4.59,0,0,1,3.38,3.39A4,4,0,0,1,106.35,32.18Z"/><path class="cls-5" d="M106.35,33.25V75.66a5.64,5.64,0,0,1-1.24,3.54,5.76,5.76,0,0,1-.47.53l-.41.35a3.25,3.25,0,0,1-.52.37,2.4,2.4,0,0,1-.38.23,5.79,5.79,0,0,0,1.17-3.46V34.81a5.71,5.71,0,0,0-5.71-5.69H34a5.63,5.63,0,0,0-2.66.65,5.67,5.67,0,0,1,4.51-2.23h64.79a5.74,5.74,0,0,1,5,3A5.78,5.78,0,0,1,106.35,33.25Z"/><polygon class="cls-4" points="55.58 76.46 80.42 76.46 80.93 96.05 55.58 76.46"/><path class="cls-6" d="M105.11,79.2a5.69,5.69,0,0,1-4.46,2.15H80.54l.38,14.7-19-14.7h-26A5.68,5.68,0,0,1,31.4,79.2H61.06L79.91,93.77,79.54,79.2Z"/><rect class="cls-7" x="45.45" y="38.1" width="44.6" height="4.81"/><rect class="cls-7" x="45.45" y="51.36" width="49.16" height="4.81"/><rect class="cls-7" x="45.45" y="64.54" width="26.8" height="4.81"/><path class="cls-6" d="M56.69,89.65l1.75-1.36H70.89l10,7.76h0l-.21-7.83h0a4.71,4.71,0,0,0,4-4.65V81.35h17a4.64,4.64,0,0,0,4.64-4.64V40Z"/></g></g></svg>