<svg xmlns="http://www.w3.org/2000/svg" viewBox="0 0 128 128"><defs><style>.cls-1{fill:#887c6d;}.cls-2,.cls-3{fill:#040000;}.cls-2{opacity:0.15;}.cls-3{opacity:0.1;}.cls-4{fill:#e4e4d4;}.cls-5{fill:#e2e2b7;}.cls-6{fill:#e1db9e;}.cls-7{fill:#e3e3bd;}.cls-8{fill:#a09c88;}.cls-9{fill:none;}.cls-10{fill:#db7a8b;}.cls-11{fill:#cb6f84;}.cls-12{fill:#d07893;}.cls-13{fill:#dd94a8;}.cls-14{fill:#fffffe;}.cls-15{fill:#fcfbe2;}.cls-16{fill:#9a9984;}.cls-17{fill:#fdfce7;}.cls-18{fill:#f2a1b3;}.cls-19{fill:#f096ab;}.cls-20{fill:#f19fba;}.cls-21{fill:#f5bcd0;}</style></defs><g id="レイヤー_2" data-name="レイヤー 2"><g id="_1" data-name="1"><rect class="cls-1" width="128" height="128"/><rect class="cls-2" x="85.78" y="33.19" width="13.44" height="13.44" transform="translate(-1.13 77.1) rotate(-45)"/><path class="cls-3" d="M128,60.85V128H60.19l-30-30-2.42-2.42-.08-.29h0l-.22-.81h0l-2-7.22,5-5L45.64,67l1.71-1.7.48-.49,1.32-1.32,2.42-2.42L53,59.64l20-20,7.89-7.9h0l8.87-2.42h.06l.33-.09a3.64,3.64,0,0,1,.66,0,3.14,3.14,0,0,1,1.83.87l.29.31a3.41,3.41,0,0,1,.48.71s0,0,0,0l.66,2.45.06.18.65,2.41,6.42-1,.4-.06a3.9,3.9,0,0,1,.58.05l0,0h0Z"/><path class="cls-4" d="M68.66,66.48l-.42.36L64.1,70.55l-2.25,2-1.67,1.49-1,.89L34.68,96.86l-.63.57A3.6,3.6,0,0,1,32.53,95l-.16-1s0,0,0,0L25.7,52.45s0,0,0,0l-.28-1.75a3.61,3.61,0,0,1,.71-2.82L37,52.64,61.1,63.17h0l2,.85,4,1.74.23.09,1.38.61Z"/><path class="cls-5" d="M104,36.3a9.62,9.62,0,0,1,1,3.18l6.61,41.36a18.48,18.48,0,0,1,.3,2.65c0,.23-1.14.39-2.27-.11L79.78,70.3l-3.42-1.49L73,67.31l-1.13-.49-2.44-1.07-.63-.28c-.15-.06,0-.39.41-.72l.7-.62,0,0,.65-.58,1.19-1.06,1.38-1.24c.46-.4,1.58-1.41,2.5-2.23l25-22.38C101.57,35.79,103.68,35.77,104,36.3Z"/><path class="cls-6" d="M111.76,81.32h0c-.39-.19-.79-.41-1.21-.65-1.15-.63-2.37-1.31-3.33-1.86l-.41-.19-1.55-.86-3-1.64-.15-.1-.14-.08h0L95,72.12l-2-1.08-7.53-4.16-1.38-.78h0l-2.19-1.21-2.14-1.16h0l-1.73-1-4-2.19-.16-.08-1.56-.88-.32-.17-1.75-1a3.87,3.87,0,0,0-1.38-.41,3.76,3.76,0,0,0-1.11,0,1.34,1.34,0,0,0-.48.08H67.1a.6.6,0,0,0-.23.06,3.68,3.68,0,0,0-1,.28.71.71,0,0,0-.18.08.56.56,0,0,0-.13.07h0a.28.28,0,0,0-.13.07.26.26,0,0,0-.11.08h0a2.94,2.94,0,0,0-.69.54l0,0L63.5,60.6l-1,1-1.17,1.25h0l-.19.2,0,.07h0l-.66.71,0,.07h0l-1.29,1.39-1.83,2h0l-1,1.07-.67.71L54.2,70.58l-.57.6-.07.08-.09.1-.15.15-.17.18,0,0s0,0,0,0l0,0h0L46.9,78.41l-1.58,1.71L39.86,86l-.13.14-3.37,3.62-.14.15c-1,1.11-2.62,2.82-3.85,4.11l.17,1c0,.1,0,.19.05.28a1.59,1.59,0,0,0,.1.33,1.84,1.84,0,0,0,.09.25,3.25,3.25,0,0,0,.22.46,3.89,3.89,0,0,0,.28.39,1.61,1.61,0,0,0,.23.27l.26.25a2.92,2.92,0,0,0,.28.21,1.81,1.81,0,0,0,.47.26l.32.11h0l0,0a1.93,1.93,0,0,0,.52.11h.08L110.11,86l.06,0a3.2,3.2,0,0,0,1.59-1.69,3.56,3.56,0,0,0,.27-1.23Z"/><path class="cls-7" d="M111.62,80.49l.41,2.57a3.29,3.29,0,0,1-.27,1.22A3.1,3.1,0,0,1,110.17,86l-74.76,12a2.82,2.82,0,0,1-1.36-.5A3.6,3.6,0,0,1,32.53,95l-.16-1s0,0,0,0l-.13-.83s0,0,0,0c1.24-1.16,2.86-2.71,3.92-3.68l.14-.14L39.85,86l5.57-5.26L47,79.19l9.88-9.35,1.89-1.78,4.26-4,.86-.81,1.13-1.08a4.67,4.67,0,0,1,2.27-1.05,22.94,22.94,0,0,0,.94-.15,4.54,4.54,0,0,1,1.1,0,3.63,3.63,0,0,1,1.37.33l1.56.74.49.22,5.74,2.71L80.87,66l4.89,2.3,7.42,3.5,1.93.92,7,3.29,4.61,2.18.41.18c.94.46,2.15,1,3.28,1.55C110.83,80.14,111.24,80.33,111.62,80.49Z"/><path class="cls-8" d="M105.14,40c-1.23,1.3-2.83,3-3.88,4.13l-.13.15L98,47.64l-.34.37-5.48,5.87-1.57,1.7-8.34,8.94-.33.36-.32.35-.73.78L78.5,68.56l-.65.7-.13.14-.11.13-.13.14-.13.13-.19.22h0L74,73.41l-1.11,1.2a4.27,4.27,0,0,1-2.25,1.15,2.46,2.46,0,0,1-.46.08,2,2,0,0,1-.48.06,3.39,3.39,0,0,1-1.1,0,3.51,3.51,0,0,1-1.38-.4l-1.68-.92-.33-.18h0l-.05,0L65,74.32l-.13-.07-.11-.06h0L63,73.2l-1.16-.64-.65-.36L60.8,72h0l-.07,0,0,0-.07,0-.2-.12-.12-.06-.15-.09-.18-.1-.78-.43-.28-.16h0l-1.19-.67-.79-.43L56,69.32l-.4-.21L53,67.7h0l-.06,0h0l-.08,0-.11,0h0l0,0-.11-.06-.09,0-.08,0h0l0,0h0L52,67.11l-.85-.46h0l0,0-1.4-.78-1.83-1L44.43,63l-2-1.08L35.38,58l-4.67-2.58c-.14-.08-.27-.13-.43-.21-.9-.52-2.06-1.16-3.16-1.77L27,53.32c-.4-.23-.82-.44-1.19-.64h0l0-.22s0,0,0,0l-.28-1.76a3.6,3.6,0,0,1,.71-2.83l.11-.07L27.52,47l.09-.06.19,0,.21,0,45-7.21,9.83-1.58,8.57-1.37L92,36.6l2.83-.47,6.42-1,.4-.06a3.9,3.9,0,0,1,.58.05h.07a3,3,0,0,1,1.44.77l.29.29a3.33,3.33,0,0,1,.65,1.09v0l.06.32.35,2.17Z"/><path class="cls-7" d="M105.11,39.78c-1.25,1.17-2.88,2.73-3.94,3.7l-.14.14-3.29,3.11-.27.26L91.9,52.25l-1.61,1.54L80,63.55h0l-.18.18-.67.64-.55.53,0,0-1,1-.14.13-.13.12-.13.12-.07.08-1.38,1.3-.62.58h0l-1.6,1.51-1.14,1.08a3.27,3.27,0,0,1-.37.28,4.35,4.35,0,0,1-1.41.66,3.51,3.51,0,0,1-.49.12l-.3,0h-.16a1,1,0,0,1-.28,0,.47.47,0,0,1-.17,0h-.23a4.43,4.43,0,0,1-.89,0,4,4,0,0,1-.72-.11L67,71.9h0l-.38-.16L66,71.48l-.08,0-1.41-.67-.43-.19h0l-.26-.13-.9-.42-1.15-.54L61,69.15l-.46-.23h0l0,0-.07,0,0,0-.16-.07-.09,0v0h0l-.06,0-.08,0h0v0l-1.18-.55h0l-1.2-.56-.35-.17h0l-3.84-1.81h0l0,0h0l0,0h0l-.18-.09,0,0h0l-.06,0,0,0h0v0h0l-.37-.17-.87-.41-.75-.36-1.67-.8-5-2.35-1.94-.91-7-3.3L30.6,54.77l-.4-.18L29,54H28.9c-.64-.32-1.33-.64-2-.94l-1.18-.55-.28-1.75a3.55,3.55,0,0,1,.7-2.82l0,0a.34.34,0,0,1,.08-.09A2.85,2.85,0,0,1,27.52,47l.09,0,.19-.05.21,0,45-7.21,9.83-1.58,8.57-1.37L92,36.6l2.83-.47,6.42-1,.4,0a2.43,2.43,0,0,1,.61.06h0a3,3,0,0,1,1.44.73l.29.29a3.54,3.54,0,0,1,.65,1.12l.06.32Z"/><path class="cls-9" d="M61.07,67.33s0,0,0,0h0a2.37,2.37,0,0,0,.49-.81A2.6,2.6,0,0,1,61.07,67.33Z"/><path class="cls-9" d="M68.29,61.51l.47-.15.14,0Z"/><path class="cls-9" d="M67.14,61.12h0l-.21,0h0Z"/><path class="cls-9" d="M67.61,61h0Z"/><path class="cls-9" d="M77.08,72.78a2.57,2.57,0,0,1-.56,1.74,6.17,6.17,0,0,1-1,1.14,3.56,3.56,0,0,1-1.62,1h0c1.27-.21,3.39-2.51,3.15-3.84v-.06s0,0,0-.07A.57.57,0,0,1,77.08,72.78Z"/><path class="cls-9" d="M60.76,68a3.17,3.17,0,0,1,.11-.33q0,.12-.09.27S60.77,68,60.76,68Z"/><path class="cls-9" d="M67.65,61h0Z"/><path class="cls-9" d="M67.73,61.65l-.16,0a8.94,8.94,0,0,0,1.19-.32l-.47.15Z"/><path class="cls-9" d="M76.57,75.48l-.16.17Z"/><path class="cls-9" d="M61.91,62.74s0,0,0,0h0S61.91,62.75,61.91,62.74Z"/><path class="cls-9" d="M75.79,64.59c-.46-.5-.9-.9-1.18-1.23q.21.24.51.54C75.33,64.11,75.56,64.33,75.79,64.59Z"/><path class="cls-9" d="M61.41,63.69s0,0,0,0h0s0,0,0,0,0,.11,0,.16h0C61.38,63.8,61.39,63.75,61.41,63.69Z"/><path class="cls-9" d="M66.16,61.22l-.79.05.79-.05Z"/><path class="cls-9" d="M60.56,69.9a5.05,5.05,0,0,1,0-.87A5.05,5.05,0,0,0,60.56,69.9Z"/><path class="cls-9" d="M77.08,72.72a6.83,6.83,0,0,1,0-1.51,8.52,8.52,0,0,0,0,1.44S77.07,72.7,77.08,72.72Z"/><path class="cls-9" d="M67.24,61.74l.33-.06.16,0Z"/><path class="cls-9" d="M61.19,74.57a2.07,2.07,0,0,0,.19.32,3.27,3.27,0,0,0,.47.51,3.27,3.27,0,0,1-.47-.51A2.07,2.07,0,0,1,61.19,74.57Z"/><path class="cls-9" d="M77.27,68.6c0,.85-.17,1.76-.22,2.61C77.1,70.36,77.23,69.45,77.27,68.6Z"/><path class="cls-9" d="M72.56,59.93h0Z"/><path class="cls-9" d="M63.07,76.08c.23.1.47.18.71.26h0C63.54,76.26,63.3,76.18,63.07,76.08Z"/><path class="cls-9" d="M72.37,59.88h0l-.17,0h0Z"/><path class="cls-9" d="M67.65,78.2h0Z"/><path class="cls-9" d="M69.31,77.88a2.44,2.44,0,0,1-.44.19L69,78l.3-.13a8.43,8.43,0,0,1,2.5-.9,8,8,0,0,0-.81.2A7.59,7.59,0,0,0,69.31,77.88Z"/><path class="cls-9" d="M68.42,78.18a3.07,3.07,0,0,1-.74,0h0a2.89,2.89,0,0,0,.72,0l.31-.08.14,0A3.69,3.69,0,0,1,68.42,78.18Z"/><path class="cls-9" d="M68.73,78.1,69,78l-.14.06Z"/><path class="cls-9" d="M63.07,76.08a4.54,4.54,0,0,1-1.18-.66A4.54,4.54,0,0,0,63.07,76.08Z"/><path class="cls-9" d="M72.23,60.49h0Z"/><path class="cls-9" d="M72.81,76.81l.2,0,.39-.07-.39.07Z"/><path class="cls-9" d="M60.78,72.74c0-.18,0-.37,0-.56a8.42,8.42,0,0,0,0-1.22h0A13.38,13.38,0,0,1,60.78,72.74Z"/><path class="cls-9" d="M71.3,59.89h0a8.07,8.07,0,0,0-.85.21h0A8.73,8.73,0,0,1,71.3,59.89Z"/><polygon class="cls-9" points="72.6 76.84 72.61 76.84 72.6 76.84 72.6 76.84"/><path class="cls-9" d="M72.11,59.86h0a3,3,0,0,0-.79,0h0A3,3,0,0,1,72.11,59.86Z"/><path class="cls-9" d="M61.32,64h0a5.5,5.5,0,0,0-.14.59h0C61.22,64.38,61.27,64.18,61.32,64Z"/><path class="cls-9" d="M66.35,77.78a2.92,2.92,0,0,0,.59.27,2.84,2.84,0,0,1-.35-.16Z"/><path class="cls-9" d="M75.31,76.65c-.08.06-.15.09-.23.14C75.16,76.74,75.23,76.71,75.31,76.65Z"/><path class="cls-9" d="M60.79,66.65a1.91,1.91,0,0,1-.22.3,1.91,1.91,0,0,0,.22-.3Z"/><path class="cls-9" d="M64.49,62a3.83,3.83,0,0,0-1.4.53L63,62.6a2.62,2.62,0,0,0-1,1.29h0a2.64,2.64,0,0,1,.41-.76,2.91,2.91,0,0,1,1.35-.94,4.84,4.84,0,0,1,.83-.22h0Z"/><path class="cls-9" d="M60.57,67h0A3.49,3.49,0,0,0,60,68.4h0A3.49,3.49,0,0,1,60.57,67Z"/><path class="cls-9" d="M61,66h0c0,.1-.05.21-.08.31h0C61,66.2,61,66.09,61,66Z"/><path class="cls-9" d="M60.92,66.36h0c0,.09-.07.18-.12.27h0C60.85,66.54,60.88,66.45,60.92,66.36Z"/><path class="cls-9" d="M73.5,77.33l-.39.06-.41.07h0l.41-.07.39-.06a4.89,4.89,0,0,0,.53-.09Z"/><path class="cls-9" d="M60,68.44h0v0h0Z"/><path class="cls-9" d="M59.92,69.46h0A5.49,5.49,0,0,0,60,70h0A5.49,5.49,0,0,1,59.92,69.46Z"/><path class="cls-9" d="M74,62.26h0a7.52,7.52,0,0,0-.58-1.06,3,3,0,0,1,.22.35C73.74,61.77,73.86,62,74,62.26Z"/><path class="cls-9" d="M60,68.65h0a5.14,5.14,0,0,0-.07.78h0A4.9,4.9,0,0,1,60,68.65Z"/><path class="cls-9" d="M74,62.26a6.8,6.8,0,0,0,.61,1.08h0A6.8,6.8,0,0,1,74,62.26Z"/><path class="cls-9" d="M69.07,78.66a4.16,4.16,0,0,0,.54-.23,7.54,7.54,0,0,1,2.27-.82,7.54,7.54,0,0,0-2.27.82A4.16,4.16,0,0,1,69.07,78.66Z"/><path class="cls-9" d="M66,77.44a1.67,1.67,0,0,0,.39.34l.24.11a1.89,1.89,0,0,1-.63-.45,5.08,5.08,0,0,0-2.18-1.1h0A5.08,5.08,0,0,1,66,77.44Z"/><path class="cls-9" d="M60.88,75.27a3.43,3.43,0,0,1-.41-.7h0a3.43,3.43,0,0,0,.41.7,5,5,0,0,0,2.5,1.61h0A5,5,0,0,1,60.88,75.27Z"/><path class="cls-9" d="M60.25,74h0c0,.12.09.25.13.38h0C60.34,74.22,60.28,74.09,60.25,74Z"/><path class="cls-9" d="M65.47,77.83a5.31,5.31,0,0,0-2.09-1h0a5.31,5.31,0,0,1,2.09,1,2.78,2.78,0,0,0,1.25.81A2.78,2.78,0,0,1,65.47,77.83Z"/><path class="cls-9" d="M61.08,65.48h0c0,.18,0,.35-.06.5h0C61,65.83,61.06,65.65,61.08,65.48Z"/><path class="cls-9" d="M61.93,64.15a5,5,0,0,0-.17.88,5.12,5.12,0,0,1,.1-.63,3.94,3.94,0,0,1,.14-.51h0C62,64,62,64.07,61.93,64.15Z"/><path class="cls-9" d="M61.18,64.58h0c0,.26-.07.5-.09.73h0Q61.12,65,61.18,64.58Z"/><path class="cls-9" d="M60.13,72.92h0a4.75,4.75,0,0,0,.11,1h0A4.75,4.75,0,0,1,60.13,72.92Z"/><path class="cls-10" d="M60.76,71a6.21,6.21,0,0,0-.13-.68,2.32,2.32,0,0,1-.07-.38,5.05,5.05,0,0,1,0-.87l.06-.44c0-.22.09-.42.14-.6,0,0,0,0,0-.06l0,.06a6.09,6.09,0,0,0-.19,1.06,5.11,5.11,0,0,0,0,.76l.1,1.28a4.6,4.6,0,0,1,.08.91v.21l.06.92c0-.13,0-.26,0-.39A13.38,13.38,0,0,0,60.76,71Z"/><path class="cls-10" d="M64.85,61.94c.59-.07,1.12-.06,1.73-.12.21,0,.43,0,.66-.08l.49-.09.56-.14.61-.19c.21-.07.44-.15.67-.25l.41-.14-.36.11a14,14,0,0,1-1.87.6C66.79,61.85,65.81,61.81,64.85,61.94Z"/><path class="cls-10" d="M66.26,78a3.92,3.92,0,0,0,1.67.36c1.2,0,2.14-.81,3.25-1.1,1-.26,2-.28,2.91-.54a1.92,1.92,0,0,0,.36-.14A6,6,0,0,0,77,73.72a33.59,33.59,0,0,0,.35-5.61,4.34,4.34,0,0,0-.23-1.77l-.12,0a4.92,4.92,0,0,1,.24,2.21c0,.85-.17,1.76-.22,2.61a6.83,6.83,0,0,0,0,1.51v.06c.24,1.33-1.88,3.63-3.15,3.84h0l-.52.08-.39.07-.2,0-.2,0h0l-.79.14a8.43,8.43,0,0,0-2.5.9L69,78l-.28.09-.31.08a2.89,2.89,0,0,1-.72,0h0a3.19,3.19,0,0,1-.71-.15,2.92,2.92,0,0,1-.59-.27,1.67,1.67,0,0,1-.39-.34,5.08,5.08,0,0,0-2.18-1.1l-.09.13a9.49,9.49,0,0,1,1.12.42C65.36,77.15,65.69,77.72,66.26,78Z"/><path class="cls-10" d="M74.61,63.36c.28.33.72.73,1.18,1.23A6.6,6.6,0,0,1,77,66.39l.12,0c-.07,0-.07-.15-.09-.21A7.48,7.48,0,0,0,75.49,64c-1-1.05-1-1.05-1.38-1.75l0-.07-.09.13a6.8,6.8,0,0,0,.61,1.08Z"/><path class="cls-10" d="M60.1,68.2c0-.07,0-.12,0-.18s-.06.15-.08.22A10.48,10.48,0,0,0,60,70.1a1.87,1.87,0,0,0,0,.34c0,.1,0,.18,0,.27L60,69.5A5.57,5.57,0,0,1,60.1,68.2Z"/><path class="cls-10" d="M63,62.6a2.59,2.59,0,0,0-.57.53,2.49,2.49,0,0,0-.41.76A2.62,2.62,0,0,1,63,62.6Z"/><path class="cls-10" d="M61,66.12c.21-.79.15-1.62.4-2.4a1.22,1.22,0,0,1,.1-.23c0,.06-.07.1-.1.17s0,.13-.06.19a.56.56,0,0,1,0,.12c-.21.74-.14,1.53-.36,2.27a.14.14,0,0,1,0,.06.14.14,0,0,0,0,.06,2.29,2.29,0,0,1-.1.23A1.63,1.63,0,0,0,61,66.12Z"/><path class="cls-10" d="M60.82,73.63c0,.05,0,.11,0,.16,0-.13,0-.27-.06-.4Z"/><path class="cls-10" d="M67.83,61A21.63,21.63,0,0,1,71.26,60c1.33-.13,1.66.61,1.66.62s-.12,0-.17,0l-.36-.06a2,2,0,0,1,.56.19,1.41,1.41,0,0,1,.45.46A7.52,7.52,0,0,1,74,62.26l.09-.13c-.84-1.72-1-1.93-1.76-2.17A2.62,2.62,0,0,0,71,60a6.53,6.53,0,0,0-.76.2l-.13,0-.36.12-.41.15-.26.1.09,0-.13,0-.12,0-.11,0-.19.06-.09,0-.32.1-.13,0H68l-.27.07a2.66,2.66,0,0,1-.38.1c-1.06.22-2.15.12-3.21.34a5,5,0,0,0-.52.14l-.25.1a3.86,3.86,0,0,0-.7.36l-.09.07s0,0-.06.06a4,4,0,0,1,1.72-.71C65.43,61.25,66.65,61.35,67.83,61Z"/><path class="cls-10" d="M61.62,66.2a4,4,0,0,1-.55,1.13,2.6,2.6,0,0,0,.45-.77,3.53,3.53,0,0,0,.18-.83A3.85,3.85,0,0,1,61.62,66.2Z"/><path class="cls-10" d="M72.06,60.49a1.57,1.57,0,0,0-.48,0l-.11,0A3,3,0,0,1,72.06,60.49Z"/><path class="cls-10" d="M60.4,74.19A3.44,3.44,0,0,0,62,75.77l.22.12a11,11,0,0,0,1.51.58l.09-.13c-.24-.08-.48-.16-.71-.26a4.54,4.54,0,0,1-1.18-.66l0,0a3.27,3.27,0,0,1-.47-.51,2.07,2.07,0,0,1-.19-.32l0-.07a3.28,3.28,0,0,1,.25.58,2.47,2.47,0,0,1-1.13-1.64l-.1-1.52c0,.23,0,.45,0,.67A7.5,7.5,0,0,0,60.4,74.19Z"/><path class="cls-10" d="M64.21,62.05a3.74,3.74,0,0,0-1.12.48,3.83,3.83,0,0,1,1.4-.53A2.74,2.74,0,0,0,64.21,62.05Z"/><path class="cls-10" d="M61.84,62.88a2.68,2.68,0,0,1,.17-.23l0,0a.23.23,0,0,1-.07.07Z"/><path class="cls-10" d="M62,64a1.16,1.16,0,0,0,0,.18c0-.08,0-.16.07-.25S62,64,62,64Z"/><path class="cls-10" d="M68,60.94h0Z"/><path class="cls-10" d="M61,74.15c0-.1-.08-.2-.1-.29A2.47,2.47,0,0,0,61,74.15Z"/><path class="cls-10" d="M77.15,66.34h0l-.12,0h0Z"/><path class="cls-10" d="M68.21,60.88h0l-.12,0h0Z"/><path class="cls-10" d="M61.52,63.49h0c0,.07-.07.11-.1.18h0C61.45,63.59,61.49,63.55,61.52,63.49Z"/><path class="cls-10" d="M61.36,63.85h0l0,.12h0A.56.56,0,0,0,61.36,63.85Z"/><path class="cls-10" d="M61.9,62.76h0l-.06.12h0Z"/><path class="cls-10" d="M70.11,60.22l-.36.12.36-.12Z"/><path class="cls-10" d="M60.94,66.3h0a.14.14,0,0,0,0,.06h0A.14.14,0,0,1,60.94,66.3Z"/><path class="cls-10" d="M68.62,60.75l-.09,0h0Z"/><path class="cls-10" d="M68,60.93Z"/><path class="cls-10" d="M60.26,73.94A3.31,3.31,0,0,0,62.05,76a11.39,11.39,0,0,0,1.54.59l.1-.14a11,11,0,0,1-1.51-.58L62,75.77a3.44,3.44,0,0,1-1.56-1.58,7.5,7.5,0,0,1-.26-1.6c0,.11,0,.22,0,.33C60.19,73.45,60.24,73.86,60.26,73.94Z"/><path class="cls-10" d="M77.15,66.34h0l.13-.06h0Z"/><path class="cls-10" d="M77.15,66.34l.13-.06h0l-.13.06Z"/><path class="cls-10" d="M62.59,62.11l.09-.07Z"/><path class="cls-10" d="M63.52,61.61l.08,0Z"/><path class="cls-10" d="M60,68.48v0Z"/><path class="cls-10" d="M61.41,63.69c0,.06,0,.11,0,.16s0-.11.06-.19S61.41,63.68,61.41,63.69Z"/><path class="cls-10" d="M61.18,64.58q-.06.39-.09.72c0-.19,0-.41.08-.63A.28.28,0,0,0,61.18,64.58Z"/><path class="cls-10" d="M59.92,69.46A5.49,5.49,0,0,0,60,70c0-.11,0-.22,0-.32S59.92,69.55,59.92,69.46Z"/><path class="cls-10" d="M75.49,64a7.48,7.48,0,0,1,1.57,2.18c0,.06,0,.19.09.21l.13-.06h0c-.06,0-.06-.15-.08-.21a6.33,6.33,0,0,0-.62-1.1c-.55-.78-1.36-1.32-1.91-2.09a5.51,5.51,0,0,1-.5-.88l-.1.13,0,.07C74.45,62.9,74.45,62.9,75.49,64Z"/><path class="cls-10" d="M77.38,68.11A33.59,33.59,0,0,1,77,73.72a6,6,0,0,1-2.58,2.82,1.92,1.92,0,0,1-.36.14c-1,.26-2,.28-2.91.54-1.11.29-2.05,1.06-3.25,1.1A3.92,3.92,0,0,1,66.26,78c-.57-.24-.9-.81-1.45-1.07a9.49,9.49,0,0,0-1.12-.42l-.1.14a7.87,7.87,0,0,1,1.32.52c.5.26.8.79,1.34,1a4,4,0,0,0,1.54.31c1.27,0,2.24-.82,3.4-1.12,1-.25,2-.25,2.89-.53a3.49,3.49,0,0,0,1-.55,5.89,5.89,0,0,0,2.16-3s.49-5.49,0-7l-.13.06A4.34,4.34,0,0,1,77.38,68.11Z"/><path class="cls-10" d="M60,68.65a4.9,4.9,0,0,0-.07.77,2.4,2.4,0,0,1,0-.28C60,69,60,68.79,60,68.65Z"/><path class="cls-10" d="M62,62.69s0,0-.06.05,0,0,0,0A.23.23,0,0,0,62,62.69Z"/><path class="cls-10" d="M63.52,61.61l-.14.07.25-.1Z"/><path class="cls-10" d="M61.32,64c0,.21-.1.41-.13.59s0,.07,0,.11c0,.27-.07.54-.09.81s0,.35-.06.5v0c0,.1-.05.21-.08.31a.14.14,0,0,0,0-.06C61.18,65.5,61.11,64.71,61.32,64Z"/><path class="cls-10" d="M60.92,66.36c0,.09-.07.18-.12.27a.08.08,0,0,0,0,0A2.29,2.29,0,0,0,60.92,66.36Z"/><path class="cls-10" d="M67.1,61.13l-.16,0c-.28,0-.53.06-.78.07-.47,0-.93.05-1.39.1l-.37.06a1.83,1.83,0,0,0-.25.06c1.06-.22,2.15-.12,3.21-.34a2.66,2.66,0,0,0,.38-.1l-.09,0h-.07Z"/><path class="cls-10" d="M64.47,61.36l-.08,0h0Z"/><path class="cls-10" d="M73.37,60.5a2.26,2.26,0,0,0-.29-.28,2.35,2.35,0,0,0-1.78-.33,8.73,8.73,0,0,0-.85.21l-.21.07A6.53,6.53,0,0,1,71,60a2.62,2.62,0,0,1,1.31,0c.75.24.92.45,1.76,2.17l.1-.13A10.25,10.25,0,0,0,73.37,60.5Z"/><path class="cls-10" d="M60,69.14c0,.17,0,.37,0,.58s0,.26.05.38a10.48,10.48,0,0,1,.07-1.86c0-.07,0-.14.08-.22s0-.21.08-.31a5.42,5.42,0,0,1,.57-1.06,1.91,1.91,0,0,1-.22.3h0A3.49,3.49,0,0,0,60,68.4C60,68.64,60,68.89,60,69.14Z"/><path class="cls-10" d="M60,70h0c0,.08,0,.15,0,.23h0C60,70.19,60,70.12,60,70Z"/><path class="cls-10" d="M60.14,72.59h0c0,.11,0,.22,0,.33h0C60.13,72.81,60.13,72.7,60.14,72.59Z"/><path class="cls-10" d="M59.92,69.42h0v0h0Z"/><path class="cls-10" d="M60,68.4h0v0h0Z"/><path class="cls-10" d="M60,68.48h0c0,.06,0,.11,0,.16h0C60,68.59,60,68.54,60,68.48Z"/><path class="cls-10" d="M60,70.27l0,.17a1.87,1.87,0,0,1,0-.34Z"/><path class="cls-10" d="M60,70.44l0-.17h0l0,.17c0,.1,0,.19,0,.28h0C60.05,70.62,60.05,70.54,60,70.44Z"/><path class="cls-10" d="M60.16,71.92h0c0,.23,0,.45,0,.67h0C60.14,72.37,60.15,72.15,60.16,71.92Z"/><path class="cls-10" d="M60.88,75.27a3.43,3.43,0,0,1-.41-.7A3.43,3.43,0,0,0,60.88,75.27Z"/><path class="cls-10" d="M77.27,73.25a5.89,5.89,0,0,1-2.16,3,3.49,3.49,0,0,1-1,.55c-.94.28-1.94.28-2.89.53-1.16.3-2.13,1.15-3.4,1.12a4,4,0,0,1-1.54-.31c-.54-.22-.84-.75-1.34-1a7.87,7.87,0,0,0-1.32-.52l-.09.12a7.34,7.34,0,0,1,1.49.59c.44.26.71.73,1.19.94a3.89,3.89,0,0,0,2.37.25c1-.27,1.92-.88,3-1.12.87-.19,1.77-.22,2.64-.47l.22-.08a6.45,6.45,0,0,0,2.68-2.62c.72-1.36.63-7.16.37-8l-.14.06C77.76,67.76,77.28,73.21,77.27,73.25Z"/><path class="cls-10" d="M77.39,66.23l-.11,0h0l.14-.06h0Z"/><path class="cls-10" d="M60,68.4v.08c0,.06,0,.11,0,.17s0,.3,0,.49C60,68.89,60,68.64,60,68.4Z"/><path class="cls-10" d="M60.25,74c0,.12.09.25.13.37a1.09,1.09,0,0,1-.05-.17A1.67,1.67,0,0,1,60.25,74Z"/><path class="cls-10" d="M62.05,76a3.31,3.31,0,0,1-1.79-2.08c0-.08-.07-.49-.13-1a4.75,4.75,0,0,0,.11,1c0,.09.06.18.09.27A3.38,3.38,0,0,0,61.76,76l.21.12.22.12a8.59,8.59,0,0,0,1.31.49l.09-.12A11.39,11.39,0,0,1,62.05,76Z"/><path class="cls-10" d="M77.28,66.28Z"/><path class="cls-10" d="M77.28,66.28h0l.11,0-.09,0Z"/><path class="cls-10" d="M60,69.14a2.4,2.4,0,0,0,0,.28v0c0,.09,0,.17,0,.26C59.94,69.51,59.94,69.31,60,69.14Z"/><path class="cls-10" d="M59.94,69.72c0,.1,0,.21,0,.32s0,.15,0,.23V70.1C60,70,60,69.85,59.94,69.72Z"/><path class="cls-10" d="M60.8,66.63h0v0h0Z"/><path class="cls-10" d="M60.56,69.05A6.09,6.09,0,0,1,60.75,68l0-.06q0-.15.09-.27a1.43,1.43,0,0,1,.16-.29h0s0,0,0,0a4,4,0,0,0,.55-1.13,3.85,3.85,0,0,0,.08-.47l.06-.7a5,5,0,0,1,.17-.88A1.16,1.16,0,0,1,62,64s0,0,0-.07h0a2.49,2.49,0,0,1,.41-.76A2.59,2.59,0,0,1,63,62.6l.11-.07a3.74,3.74,0,0,1,1.12-.48,2.74,2.74,0,0,1,.28,0l.1,0h0l.25,0h0c1-.13,1.94-.09,2.9-.3a14,14,0,0,0,1.87-.6,15,15,0,0,1-3.57.73,9.13,9.13,0,0,0-1.86.21,3.37,3.37,0,0,0-1.81,1.12,2.69,2.69,0,0,0-.46.86,18.63,18.63,0,0,0-.35,2.22c-.13.67-.68,1.15-.86,1.79a5.57,5.57,0,0,0-.19.89,5.41,5.41,0,0,0-.05,1,9,9,0,0,0,.17,1.27l-.1-1.28A5.11,5.11,0,0,1,60.56,69.05Z"/><path class="cls-10" d="M61.39,75.08a3.28,3.28,0,0,0-.25-.58,3.73,3.73,0,0,1-.16-.35,2.47,2.47,0,0,1-.1-.29s0,0,0,0a0,0,0,0,1,0,0c0-.05,0-.11,0-.16l0-.24c0-.09,0-.17,0-.26l-.06-.92a17.82,17.82,0,0,0,0,1.91c-.16-.13-.38-.44-.44-1.24s.09-1.42,0-2.13c0-.54-.26-1-.26-1.6a5.26,5.26,0,0,1,.19-1.41c0-.09.07-.18.11-.27a3.76,3.76,0,0,0-.23.55c0,.06,0,.11,0,.18A5.57,5.57,0,0,0,60,69.5l.08,1.21a5.62,5.62,0,0,1,.09,1.21l.1,1.52A2.47,2.47,0,0,0,61.39,75.08Z"/><path class="cls-10" d="M61.84,62.88h0a3.13,3.13,0,0,0-.32.6h0A2.94,2.94,0,0,1,61.84,62.88Z"/><path class="cls-10" d="M60.67,66.91a1.87,1.87,0,0,0,.15-.32.08.08,0,0,1,0,0v0a5.42,5.42,0,0,0-.57,1.06c0,.1,0,.2-.08.31a3.76,3.76,0,0,1,.23-.55A6,6,0,0,1,60.67,66.91Z"/><path class="cls-10" d="M60.07,70.71h0a5.48,5.48,0,0,1,.09,1.2h0A5.62,5.62,0,0,0,60.07,70.71Z"/><path class="cls-10" d="M60.38,74.34h0c0,.07,0,.14.09.22h0A2.18,2.18,0,0,1,60.38,74.34Z"/><path class="cls-10" d="M60.24,73.9h0s0,0,0,.07h0S60.24,73.92,60.24,73.9Z"/><path class="cls-10" d="M77.42,66.22h0l.19-.08h0l-.06,0Z"/><path class="cls-10" d="M73.11,77.39l.39-.06.53-.09h0a3.28,3.28,0,0,0,1-.45c.08-.05.15-.08.23-.14a6.82,6.82,0,0,0,1.1-1l.16-.17a3.84,3.84,0,0,0,1.13-2.8c-.27-1.73.69-4.74-.09-6.54l-.19.08c.26.84.35,6.64-.37,8a6.45,6.45,0,0,1-2.68,2.62l-.22.08c-.87.25-1.77.28-2.64.47-1,.24-1.93.85-3,1.12a3.89,3.89,0,0,1-2.37-.25c-.48-.21-.75-.68-1.19-.94a7.34,7.34,0,0,0-1.49-.59l-.12.15a5.31,5.31,0,0,1,2.09,1,2.78,2.78,0,0,0,1.25.81,3.85,3.85,0,0,0,1.8.16,3.41,3.41,0,0,0,.55-.14,4.16,4.16,0,0,0,.54-.23,7.54,7.54,0,0,1,2.27-.82l.82-.15h0Z"/><path class="cls-10" d="M62,76.12,61.76,76a3.38,3.38,0,0,1-1.43-1.83,1.09,1.09,0,0,0,.05.17,2.18,2.18,0,0,0,.09.23,3.43,3.43,0,0,0,.41.7,5,5,0,0,0,2.5,1.61l.12-.15a8.59,8.59,0,0,1-1.31-.49Z"/><path class="cls-10" d="M60.24,73.9s0,0,0,.07a1.67,1.67,0,0,0,.08.2C60.3,74.08,60.26,74,60.24,73.9Z"/><path class="cls-10" d="M60.64,71.09l.08,1.12V72A4.6,4.6,0,0,0,60.64,71.09Z"/><path class="cls-10" d="M71.41,60.5l-.21,0c-.19,0-.38.1-.57.16a6.23,6.23,0,0,1,.78-.19h.06l.11,0Z"/><path class="cls-10" d="M70.57,60.72c-.32.1-.64.2-.95.32l.36-.11C70.18,60.86,70.39,60.77,70.57,60.72Z"/><path class="cls-10" d="M61.68,64.83c0,.18,0,.36,0,.54h0c0,.12,0,.22,0,.34a3.61,3.61,0,0,1-.12.67.49.49,0,0,0,0,.11h0s0,.08,0,.1l0-.06.07-.12s0,0,0,0v0s0,0,0,0h0a.33.33,0,0,0,0-.13c0-.15,0-.31.06-.46a2.57,2.57,0,0,0,0-.4h0a4.13,4.13,0,0,1,.07-.49Zm-1,7.09,0-.44h0c0,.11,0,.24,0,.41a.22.22,0,0,1,0,.11,3,3,0,0,1,0,.34.12.12,0,0,0,.09,0V72.2Zm.42-4.78h0s0,0,0-.06A.07.07,0,0,0,61.12,67.14Zm-.42,4.78,0-.44h0c0,.11,0,.24,0,.41a.22.22,0,0,1,0,.11,3,3,0,0,1,0,.34.12.12,0,0,0,.09,0V72.2ZM72.13,60.17a.82.82,0,0,0-.26-.14h0a1.1,1.1,0,0,0-.26,0h-.12a2.88,2.88,0,0,0-.64.14,2,2,0,0,0-.27.08l-.41.12-1.07.36-.25.09h0l-.21.07h0l-.18.06a1,1,0,0,1-.21.06.34.34,0,0,0-.12.06.48.48,0,0,0-.18,0l-.17,0h0l-.23.06a8.24,8.24,0,0,1-.94.18c-.13,0-.24,0-.37,0h0l-.36,0c-.51,0-1,0-1.54.09h0a4.64,4.64,0,0,0-.71.16l-.07,0a3.57,3.57,0,0,0-.76.36,2.63,2.63,0,0,0-.35.26l-.29.29h0l0,0c-.09.11-.17.23-.26.35a.86.86,0,0,0-.13.25l-.07.13c-.06.15-.1.28-.14.39a3.53,3.53,0,0,0-.13.54h0a.62.62,0,0,0,0,.13v0c0,.15,0,.31-.05.47s0,.34,0,.5,0,.25-.06.36a1.16,1.16,0,0,0,0,.18,2.87,2.87,0,0,1-.22.55l-.21.33s0,0,0,0c-.1.19-.2.37-.29.56s0,.09-.07.14,0,.08-.05.13a1.69,1.69,0,0,0,0,.24c0,.13-.05.26-.08.37s0,.17,0,.25a.34.34,0,0,0,0,.1s0,.1,0,.15v.05a2.36,2.36,0,0,0,0,.25,1.69,1.69,0,0,0,0,.38.22.22,0,0,0,0,.08c.05.38.18.75.21,1.14a5.08,5.08,0,0,1,0,.78.65.65,0,0,1,0,.19c0,.23,0,.46,0,.69s0,.32,0,.47a2.06,2.06,0,0,0,0,.26,1.76,1.76,0,0,0,.18.64.65.65,0,0,0,.24.33c0-.23,0-.38,0-.54a2.81,2.81,0,0,1,0-.3c0-.21,0-.49,0-1V72.2l0-.28,0-.44,0-.39a10.75,10.75,0,0,1-.16-1.27v-.19a.8.8,0,0,1,0-.27h0c0-.11,0-.2,0-.28a1.05,1.05,0,0,0,0-.18v0a3.21,3.21,0,0,1,.08-.44,3.69,3.69,0,0,1,.11-.45,3.78,3.78,0,0,1,.41-.83l-.19.29-.12.21a1.61,1.61,0,0,0-.18.42c0,.11-.06.24-.09.38s-.06.26-.09.42,0,.2,0,.3a1.81,1.81,0,0,0,0,.23s0,.09,0,.13a.43.43,0,0,0,0,.11.32.32,0,0,1,0,.31.11.11,0,0,1-.08,0,.84.84,0,0,1-.08-.33,1,1,0,0,0,0-.12,4.62,4.62,0,0,1,0-.75v0l0,0s0-.07,0-.11h0a6.2,6.2,0,0,1,.1-.63c0-.08.05-.19.07-.28a2.54,2.54,0,0,1,.38-.73,3.43,3.43,0,0,0,.47-1,1.06,1.06,0,0,0,0-.23,1.52,1.52,0,0,0,0-.21c.05-.28.06-.56.09-.85a4.88,4.88,0,0,1,.06-.52,2.51,2.51,0,0,1,.22-.74l.06-.13a2.81,2.81,0,0,1,.46-.65h0a3,3,0,0,1,1.49-.87h0l.42-.09h.12l1,0s0,.06,0,.09-.13,0-.19,0a6.88,6.88,0,0,0-1,.23h0a3.46,3.46,0,0,0-1.26.7,2.26,2.26,0,0,0-.6.66.73.73,0,0,1-.05.09.34.34,0,0,0-.08.17,1.64,1.64,0,0,0-.16.38.93.93,0,0,0,0,.13,4.89,4.89,0,0,0-.16.74c0,.18,0,.36,0,.54h0c0,.12,0,.22,0,.34a3.61,3.61,0,0,1-.12.67.49.49,0,0,0,0,.11h0s0,.08,0,.1a1.45,1.45,0,0,1-.09.22s.05-.07.06-.1a2.63,2.63,0,0,0,.14-.3s0,0,0,0v0s0,0,0,0h0a.33.33,0,0,0,0-.13c0-.15,0-.31.06-.46a2.57,2.57,0,0,0,0-.4h0a4.13,4.13,0,0,1,.07-.49,1.23,1.23,0,0,1,0-.19,1,1,0,0,1,0-.2.17.17,0,0,1,0-.07,2.75,2.75,0,0,1,.11-.41h0a1.17,1.17,0,0,1,.1-.26.19.19,0,0,1,0-.1l.08-.17a3.58,3.58,0,0,1,.21-.32,5.88,5.88,0,0,1,.44-.43,0,0,0,0,0,0,0,2.88,2.88,0,0,1,.34-.23l.07,0a3.75,3.75,0,0,1,.4-.21l.06,0L64,62h.09l.13,0a2,2,0,0,1,.44-.09,2.47,2.47,0,0,1,.38,0l.47,0,.57,0a10.83,10.83,0,0,0,1.8-.25h0a.72.72,0,0,1,.21-.05l.17-.06h0l.17,0,.15,0,1-.28h0l.05,0,.26-.09h0l.08,0h0l.58-.2h.06a.27.27,0,0,1,.12,0h0l.34-.09.12,0,.2,0,.17,0,.6-.17.08,0A.71.71,0,0,0,72.13,60.17ZM60.48,71.07s.06,0,.09,0a3,3,0,0,1,0,.4h0c0,.11,0,.24,0,.41a.22.22,0,0,1,0,.11,3,3,0,0,1,0,.34c0,.29,0,.69,0,.88h0a.22.22,0,0,1,0,.09.08.08,0,0,1-.09,0,.8.8,0,0,1,0-.18,4.22,4.22,0,0,1-.06-.54c0-.06,0-.15,0-.27s0-.39,0-.6a2.35,2.35,0,0,1,0-.27c0-.09,0-.16,0-.23s0-.11,0-.15S60.47,71.07,60.48,71.07Zm11-10.74-.24.06c-.19.06-.57.21-1.54.54h0l-.25.09-.34.11a4.3,4.3,0,0,1-.55.17.42.42,0,0,1-.15,0l-.17,0a1.16,1.16,0,0,1-.18,0l-.23,0a6.08,6.08,0,0,1-1.45.16s0-.07,0-.08.08,0,.11,0a9.83,9.83,0,0,0,1.13-.24l.23-.07.16,0,.17-.06a.65.65,0,0,0,.13,0,3.72,3.72,0,0,0,.54-.21h0l.08,0,.32-.12a6.21,6.21,0,0,1,2.21-.59c.17,0,.21.06.21.06a.13.13,0,0,1,0,.09C71.63,60.35,71.54,60.31,71.48,60.33ZM61.16,67.08a.07.07,0,0,0,0,.06h0S61.15,67.11,61.16,67.08Zm-.46,4.84,0-.44h0c0,.11,0,.24,0,.41a.22.22,0,0,1,0,.11,3,3,0,0,1,0,.34.12.12,0,0,0,.09,0V72.2Zm.42-4.78h0s0,0,0-.06A.07.07,0,0,0,61.12,67.14Z"/><path class="cls-10" d="M60.67,66.91a6,6,0,0,0-.3.56Z"/><path class="cls-10" d="M71.32,59.89h0Z"/><path class="cls-10" d="M70.45,60.1h0l-.23.08h0Z"/><path class="cls-10" d="M70.11,60.22l.13,0h0Z"/><path class="cls-10" d="M70.22,60.18h0l-.11,0h0Z"/><path class="cls-10" d="M73.25,60.19,72.9,60l.12.07Z"/><path class="cls-10" d="M72.11,59.86a3,3,0,0,0-.79,0h0a2.35,2.35,0,0,1,1.78.33,2.26,2.26,0,0,1,.29.28,10.25,10.25,0,0,1,.8,1.5l.1-.15s0-.06,0-.1A3.36,3.36,0,0,0,73,60.1L72.7,60l-.14,0h0A3.18,3.18,0,0,0,72.11,59.86Z"/><path class="cls-10" d="M72.2,59.86l.17,0Z"/><path class="cls-10" d="M70.22,60.18h0l.21-.07Z"/><path class="cls-10" d="M77.39,66.23h0Z"/><path class="cls-10" d="M72.77,60h0Z"/><path class="cls-10" d="M77.39,66.23h0l-.12,0Z"/><path class="cls-10" d="M76.58,65a6.33,6.33,0,0,1,.62,1.1c0,.06,0,.19.08.21h0l.12,0c-.07,0-.06-.15-.09-.21a8.12,8.12,0,0,0-1.87-2.51,4.21,4.21,0,0,1-1.19-1.65l-.1.15a5.51,5.51,0,0,0,.5.88C75.22,63.65,76,64.19,76.58,65Z"/><path class="cls-10" d="M77.51,66.19l-.09,0h0Z"/><path class="cls-10" d="M77.42,66.22l.13-.06,0,0-.09,0Z"/><path class="cls-10" d="M64,61.91h0l-.09,0a3.71,3.71,0,0,0-1.14.68,2.38,2.38,0,0,0-.49.51,2.26,2.26,0,0,0-.16.26l-.08.15a4.48,4.48,0,0,0-.18.44,5.38,5.38,0,0,0-.22.83c0,.22-.06.43-.07.61v0a1.55,1.55,0,0,0,0,.17,2.79,2.79,0,0,1-.13.92,1.36,1.36,0,0,1-.12.27l0,.07a1.37,1.37,0,0,1-.13.2,3.21,3.21,0,0,0-.36.59.44.44,0,0,0-.05.15s0,.05,0,.08l.18-.29.12-.21.16-.31.3-.51s0-.06,0-.1h0a.49.49,0,0,1,0-.11,3.61,3.61,0,0,0,.12-.67c0-.12,0-.22,0-.34h0c0-.18,0-.36,0-.54a4.89,4.89,0,0,1,.16-.74.93.93,0,0,1,0-.13,1.64,1.64,0,0,1,.16-.38.34.34,0,0,1,.08-.17.73.73,0,0,0,.05-.09,2.26,2.26,0,0,1,.6-.66A3.46,3.46,0,0,1,64,62S64,61.93,64,61.91Zm0,0h0l-.09,0a3.71,3.71,0,0,0-1.14.68,2.38,2.38,0,0,0-.49.51,2.26,2.26,0,0,0-.16.26l-.08.15a4.48,4.48,0,0,0-.18.44,5.38,5.38,0,0,0-.22.83c0,.22-.06.43-.07.61v0a1.55,1.55,0,0,0,0,.17,2.79,2.79,0,0,1-.13.92,1.36,1.36,0,0,1-.12.27l0,.07a1.37,1.37,0,0,1-.13.2,3.21,3.21,0,0,0-.36.59.44.44,0,0,0-.05.15s0,.05,0,.08l.18-.29.12-.21.16-.31.3-.51s0-.06,0-.1h0a.49.49,0,0,1,0-.11,3.61,3.61,0,0,0,.12-.67c0-.12,0-.22,0-.34h0c0-.18,0-.36,0-.54a4.89,4.89,0,0,1,.16-.74.93.93,0,0,1,0-.13,1.64,1.64,0,0,1,.16-.38.34.34,0,0,1,.08-.17.73.73,0,0,0,.05-.09,2.26,2.26,0,0,1,.6-.66A3.46,3.46,0,0,1,64,62S64,61.93,64,61.91Zm1.24-.29-1,0H64.1l-.42.09h0a3,3,0,0,0-1.49.87h0a2.81,2.81,0,0,0-.46.65l-.06.13a2.51,2.51,0,0,0-.22.74,4.88,4.88,0,0,0-.06.52c0,.29,0,.57-.09.85a1.52,1.52,0,0,1,0,.21,1.06,1.06,0,0,1,0,.23,3.43,3.43,0,0,1-.47,1,2.54,2.54,0,0,0-.38.73c0,.09,0,.2-.07.28a6.2,6.2,0,0,0-.1.63h0s0,.08,0,.11l0,0v0a4.62,4.62,0,0,0,0,.75,1,1,0,0,1,0,.12.84.84,0,0,0,.08.33.11.11,0,0,0,.08,0,.32.32,0,0,0,0-.31.43.43,0,0,1,0-.11s0-.08,0-.13a1.81,1.81,0,0,1,0-.23c0-.1,0-.21,0-.3s.06-.3.09-.42.07-.27.09-.38a1.61,1.61,0,0,1,.18-.42l.12-.21.19-.29a.07.07,0,0,1,0-.06.17.17,0,0,1,0,0l.12-.2a1.45,1.45,0,0,0,.09-.22s0-.06,0-.1h0a.49.49,0,0,1,0-.11,3.61,3.61,0,0,0,.12-.67c0-.12,0-.22,0-.34h0c0-.18,0-.36,0-.54a4.89,4.89,0,0,1,.16-.74.93.93,0,0,1,0-.13,1.64,1.64,0,0,1,.16-.38.34.34,0,0,1,.08-.17.73.73,0,0,0,.05-.09,2.26,2.26,0,0,1,.6-.66A3.46,3.46,0,0,1,64,62h0a6.88,6.88,0,0,1,1-.23c.06,0,.15,0,.19,0S65.23,61.63,65.2,61.62Zm-1.06.18c-.09.06-.1.09-.18.11h0l-.09,0a3.71,3.71,0,0,0-1.14.68,2.38,2.38,0,0,0-.49.51,2.26,2.26,0,0,0-.16.26l-.08.15a4.48,4.48,0,0,0-.18.44,5.38,5.38,0,0,0-.22.83c0,.22-.06.43-.07.61v0a1.55,1.55,0,0,0,0,.17,2.79,2.79,0,0,1-.13.92,1.36,1.36,0,0,1-.12.27l0,.07a1.37,1.37,0,0,1-.13.2,3.21,3.21,0,0,0-.36.59.44.44,0,0,0-.05.15s0,.05,0,.08h0c-.05.17-.07.34-.11.5a2.92,2.92,0,0,1-.1.4,1,1,0,0,1-.06.16.77.77,0,0,1-.1.22,3.38,3.38,0,0,1,0-.45.36.36,0,0,1,0-.2h0l0,0a3.23,3.23,0,0,1,.11-.74,1.54,1.54,0,0,1,.15-.35s0,0,0-.06,0,0,0,0a.78.78,0,0,1,0-.09.26.26,0,0,0,0-.09,1.39,1.39,0,0,1,.11-.21,3.69,3.69,0,0,0,.46-.88,3,3,0,0,0,.09-.41.25.25,0,0,0,0-.09,8,8,0,0,0,.08-.84,6,6,0,0,1,.09-.63l.07-.31c0-.06.07-.2.13-.34a.78.78,0,0,1,.05-.14,2.4,2.4,0,0,1,.5-.68v0a2.83,2.83,0,0,1,1.53-.79l.37-.05h0Zm-.18.11h0l-.09,0a3.71,3.71,0,0,0-1.14.68,2.38,2.38,0,0,0-.49.51,2.26,2.26,0,0,0-.16.26l-.08.15a4.48,4.48,0,0,0-.18.44,5.38,5.38,0,0,0-.22.83c0,.22-.06.43-.07.61v0a1.55,1.55,0,0,0,0,.17,2.79,2.79,0,0,1-.13.92,1.36,1.36,0,0,1-.12.27l0,.07a1.37,1.37,0,0,1-.13.2,3.21,3.21,0,0,0-.36.59.44.44,0,0,0-.05.15s0,.05,0,.08l.18-.29.12-.21.16-.31.3-.51s0-.06,0-.1h0a.49.49,0,0,1,0-.11,3.61,3.61,0,0,0,.12-.67c0-.12,0-.22,0-.34h0c0-.18,0-.36,0-.54a4.89,4.89,0,0,1,.16-.74.93.93,0,0,1,0-.13,1.64,1.64,0,0,1,.16-.38.34.34,0,0,1,.08-.17.73.73,0,0,0,.05-.09,2.26,2.26,0,0,1,.6-.66A3.46,3.46,0,0,1,64,62S64,61.93,64,61.91Z"/><path class="cls-10" d="M72.54,59.92h0l-.17,0h0Z"/><path class="cls-10" d="M72.2,59.86Z"/><path class="cls-10" d="M77.61,66.14h0l-.06,0Z"/><path class="cls-10" d="M71.26,60A21.63,21.63,0,0,0,67.83,61c-1.18.31-2.4.21-3.58.42a4,4,0,0,0-1.72.71,3.37,3.37,0,0,0-.52.48,2.68,2.68,0,0,0-.17.23,2.94,2.94,0,0,0-.32.61,1.22,1.22,0,0,0-.1.23c-.25.78-.19,1.61-.4,2.4a1.63,1.63,0,0,1-.2.47,1.87,1.87,0,0,1-.15.32,3.27,3.27,0,0,0,.44-.9c.19-.73.1-1.5.34-2.22a2.93,2.93,0,0,1,.34-.78,3.24,3.24,0,0,1,2.47-1.46c.77-.11,1.55,0,2.32-.16a10.24,10.24,0,0,0,1.85-.45c3-1,3.37-1.14,3.83-.65l-.09,0c-.2,0-.39.11-.59.16a1.57,1.57,0,0,1,.48,0s.12,0,.17,0h0l.13,0,.36.06s.15,0,.17,0S72.59,59.84,71.26,60Z"/><path class="cls-10" d="M73.26,60.2h0L73,60.1a3.36,3.36,0,0,1,1.21,1.65s0,.06,0,.1l.13-.17A3.53,3.53,0,0,0,73.26,60.2Z"/><path class="cls-10" d="M72.37,59.88l-.17,0h-.09a3.18,3.18,0,0,1,.43.06Z"/><path class="cls-10" d="M72.9,60l-.09,0h0l-.07,0,.32.14Z"/><path class="cls-10" d="M75.46,63.5A8.12,8.12,0,0,1,77.33,66c0,.06,0,.19.09.21l.18-.08a11.93,11.93,0,0,0-2.53-3.2,9.55,9.55,0,0,1-.67-1.26l-.13.17A4.21,4.21,0,0,0,75.46,63.5Z"/><path class="cls-10" d="M77.55,66.16l0,0h0l-.1,0Z"/><path class="cls-10" d="M77.42,66.22l.09,0,.09,0h0l-.19.08Z"/><path class="cls-10" d="M71.67,60.19s0,0-.21-.06a6.21,6.21,0,0,0-2.21.59l-.32.12-.08,0h0a3.72,3.72,0,0,1-.54.21.65.65,0,0,1-.13,0l-.17.06-.16,0-.23.07a9.83,9.83,0,0,1-1.13.24s-.09,0-.11,0,0,.06,0,.08a6.08,6.08,0,0,0,1.45-.16l.23,0a1.16,1.16,0,0,0,.18,0l.17,0a.42.42,0,0,0,.15,0,4.3,4.3,0,0,0,.55-.17l.34-.11.25-.09h0c1-.33,1.35-.48,1.54-.54l.24-.06c.06,0,.15,0,.2,0A.13.13,0,0,0,71.67,60.19Zm-.67.12a10.17,10.17,0,0,1-1.33.57l-.09,0h0a.65.65,0,0,0-.21.06h0l-.23.08-.17.06-.43.14-.16,0h0l-.18,0s0,0,0,0a.71.71,0,0,1-.21,0H67.8l.1,0a.85.85,0,0,0,.17-.06.94.94,0,0,0,.15-.06h0l.11,0h0c.22-.09.45-.18.67-.25v0c.31-.12.63-.24.95-.34a6.53,6.53,0,0,1,1-.23Z"/><path class="cls-10" d="M64.17,61.76l-.37.05a2.83,2.83,0,0,0-1.53.79v0a2.4,2.4,0,0,0-.5.68.78.78,0,0,0-.05.14c-.06.14-.11.28-.13.34l-.07.31a6,6,0,0,0-.09.63,8,8,0,0,1-.08.84.25.25,0,0,1,0,.09,3,3,0,0,1-.09.41,3.69,3.69,0,0,1-.46.88,1.39,1.39,0,0,0-.11.21l.07-.08.08-.1a4.11,4.11,0,0,0,.53-.92,1.25,1.25,0,0,1,0,.34,1.77,1.77,0,0,1-.32.71,1.71,1.71,0,0,0-.11.14c-.17.19-.19.27-.51,1l0,.08,0,0a4.7,4.7,0,0,1,.18-.94,1.54,1.54,0,0,0-.15.35,3.23,3.23,0,0,0-.11.74l0,0h0a.36.36,0,0,0,0,.2,3.38,3.38,0,0,0,0,.45.77.77,0,0,0,.1-.22,1,1,0,0,0,.06-.16,2.92,2.92,0,0,0,.1-.4c0-.16.06-.33.11-.5h0s0-.05,0-.08a.44.44,0,0,1,.05-.15,3.21,3.21,0,0,1,.36-.59,1.37,1.37,0,0,0,.13-.2l0-.07a1.36,1.36,0,0,0,.12-.27,2.79,2.79,0,0,0,.13-.92,1.55,1.55,0,0,1,0-.17v0c0-.18,0-.39.07-.61a5.38,5.38,0,0,1,.22-.83,4.48,4.48,0,0,1,.18-.44l.08-.15a2.26,2.26,0,0,1,.16-.26,2.38,2.38,0,0,1,.49-.51A3.71,3.71,0,0,1,63.86,62l.09,0h0c.08,0,.09,0,.18-.11l0,0Zm-.9.42c-.24.17-.43.31-.59.44a2.77,2.77,0,0,0-.64.77s-.06.1-.08.16a3.31,3.31,0,0,0-.21.46c-.07.14-.13.31-.21.49,0-.15,0-.3.05-.44a3.51,3.51,0,0,1,.18-.6c0-.05,0-.1,0-.14a2.5,2.5,0,0,1,.5-.72,2.79,2.79,0,0,1,1.28-.66A4,4,0,0,1,63.27,62.18Z"/><path class="cls-10" d="M68.94,61.12A15.36,15.36,0,0,0,71,60.31l0,0a5.38,5.38,0,0,0-1,.23c-.75.24-1.46.56-2.19.82A2.58,2.58,0,0,0,68.94,61.12Z"/><path class="cls-10" d="M62.32,62.6a2.5,2.5,0,0,0-.5.72s0,.09,0,.14a3.51,3.51,0,0,0-.18.6c0,.14,0,.29-.05.44.08-.18.14-.35.21-.49a3.31,3.31,0,0,1,.21-.46c0-.06.06-.11.08-.16a2.77,2.77,0,0,1,.64-.77c.16-.13.35-.27.59-.44a4,4,0,0,0,.33-.24A2.79,2.79,0,0,0,62.32,62.6Zm.5-.2-.22.2a6.22,6.22,0,0,0-.62.76,1.19,1.19,0,0,0-.09.15l-.16.26.09-.28a1.66,1.66,0,0,1,.06-.16,1.86,1.86,0,0,1,.53-.74,2.56,2.56,0,0,1,.66-.39Z"/><path class="cls-10" d="M67.58,61h0l-.43.08h0Z"/><path class="cls-10" d="M67.85,61h0l-.2.05h0Z"/><path class="cls-10" d="M68.29,60.85Z"/><path class="cls-10" d="M66.94,61.15h0c-.27,0-.52.06-.77.07h0C66.41,61.21,66.66,61.18,66.94,61.15Z"/><path class="cls-10" d="M68.27,60.86l-.06,0,.32-.1-.24.07Z"/><path class="cls-10" d="M64.15,61.44h0l-.49.13h0A5,5,0,0,1,64.15,61.44Z"/><path class="cls-10" d="M67.85,61l-.11,0,.27-.07h0Z"/><path class="cls-10" d="M68,60.93h0Z"/><path class="cls-10" d="M69,60.61l.13,0-.09,0-.27.1.11,0Z"/><path class="cls-10" d="M68,60.94h0l-.15,0h0Z"/><path class="cls-10" d="M68.27,60.86h0l-.07,0h0Z"/><path class="cls-10" d="M68.08,60.92Z"/><path class="cls-10" d="M68.53,60.78h0l-.24.07h0Z"/><path class="cls-10" d="M64.77,61.32c.46,0,.92-.07,1.39-.1l-.79.05c-.2,0-.4,0-.6,0l-.27,0h0l-.07,0Z"/><path class="cls-10" d="M64.4,61.38h0c-.08,0-.16,0-.25.06h0A1.83,1.83,0,0,1,64.4,61.38Z"/><path class="cls-10" d="M63.65,61.57h0l-.08,0h0l.11,0Z"/><path class="cls-10" d="M67.58,61l-.44.08-.2,0,.16,0Z"/><path class="cls-10" d="M67.65,61l.09,0,.11,0Z"/><path class="cls-10" d="M68.27,60.86h0Z"/><path class="cls-10" d="M61.36,66.05a4.11,4.11,0,0,1-.53.92l-.08.1-.07.08a.26.26,0,0,1,0,.09.78.78,0,0,0,0,.09s0,0,0,0,0,0,0,.06a4.7,4.7,0,0,0-.18.94l0,0,0-.08c.32-.77.34-.85.51-1A1.71,1.71,0,0,1,61,67.1a1.77,1.77,0,0,0,.32-.71A1.25,1.25,0,0,0,61.36,66.05Zm-.2.74a.88.88,0,0,1-.17.27.82.82,0,0,1-.16.22s-.18.24-.27.39a2,2,0,0,1,.16-.5,2.09,2.09,0,0,0,.14-.17l0,0c.06,0,.35-.49.35-.49A1.27,1.27,0,0,1,61.16,66.79Z"/><path class="cls-10" d="M60.57,71.07s-.07,0-.09,0-.09,1.25-.09,1.58a3,3,0,0,0,.11.72.09.09,0,0,0,.09,0s0-1.21,0-1.32a5,5,0,0,0-.07-.94Z"/><path class="cls-10" d="M62.41,62.59a1.86,1.86,0,0,0-.53.74,1.66,1.66,0,0,0-.06.16l-.09.28.16-.26a1.19,1.19,0,0,1,.09-.15,6.22,6.22,0,0,1,.62-.76l.22-.2.25-.2A2.56,2.56,0,0,0,62.41,62.59Zm-.11.23h0Z"/><path class="cls-10" d="M60.89,67l0,0a2.09,2.09,0,0,1-.14.17,2,2,0,0,0-.16.5c.09-.15.27-.38.27-.39a.82.82,0,0,0,.16-.22.88.88,0,0,0,.17-.27,1.27,1.27,0,0,0,.08-.31S61,66.92,60.89,67Z"/><path class="cls-10" d="M61.19,64.56h0v0h0Z"/><path class="cls-10" d="M61.09,65.3h0s0,.11,0,.17h0C61.08,65.42,61.09,65.36,61.09,65.3Z"/><polygon class="cls-10" points="61.02 65.98 61.02 65.98 61.02 65.98 61.02 65.99 61.02 65.98"/><path class="cls-10" d="M61,66h0v0Z"/><path class="cls-10" d="M61.09,65.3c0,.06,0,.12,0,.18,0-.27.06-.54.09-.81C61.14,64.89,61.11,65.11,61.09,65.3Z"/><path class="cls-10" d="M61.19,64.56v0a.28.28,0,0,1,0,.09S61.18,64.6,61.19,64.56Z"/><path class="cls-10" d="M62.29,62.82l0,0h0Z"/><path class="cls-10" d="M62.11,63.06a2.15,2.15,0,0,1,.18-.24l-.19.24Z"/><path class="cls-10" d="M62.43,62.68h0l-.12.12Z"/><path class="cls-10" d="M60.85,67.14l0,0,0,0Z"/><path class="cls-11" d="M61.89,75.42l0,0Z"/><path class="cls-11" d="M73.4,76.71l-.39.07-.27,0h.07l.2,0,.39-.07.27,0Z"/><path class="cls-11" d="M60.79,72.18c0,.19,0,.38,0,.56s0,.26,0,.39h0C60.77,72.82,60.78,72.51,60.79,72.18Z"/><path class="cls-11" d="M77.07,72.65a8.52,8.52,0,0,1,0-1.44c0-.85.18-1.76.22-2.61A4.92,4.92,0,0,0,77,66.39h0C77.71,67.91,76.83,70.78,77.07,72.65Z"/><path class="cls-11" d="M60.8,73.39h0c0,.13,0,.27.06.4h0C60.83,73.66,60.82,73.52,60.8,73.39Z"/><path class="cls-11" d="M66.59,77.89a2.84,2.84,0,0,0,.35.16,3.19,3.19,0,0,0,.71.15h0A3.23,3.23,0,0,1,66.59,77.89Z"/><path class="cls-11" d="M71.47,60.51a3,3,0,0,1,.59,0h0a3,3,0,0,0-.59,0Z"/><path class="cls-12" d="M73.62,61.55a3,3,0,0,0-.22-.35,1.41,1.41,0,0,0-.45-.46,2,2,0,0,0-.56-.19l-.13,0h0s-.12,0-.17,0a3,3,0,0,0-.59,0h0a5.6,5.6,0,0,0-.79.19l-.06,0c-.18.05-.39.14-.59.21l-.41.14c-.29.12-.55.21-.81.29a8.94,8.94,0,0,1-1.19.32l-.33.06c-.93.15-1.6.11-2.39.2h-.11l-.14,0h0a4.84,4.84,0,0,0-.83.22,2.91,2.91,0,0,0-1.35.94,2.64,2.64,0,0,0-.41.76,3.94,3.94,0,0,0-.14.51,5.12,5.12,0,0,0-.1.63l-.06.7a3.53,3.53,0,0,1-.18.83,2.37,2.37,0,0,1-.49.81,1.43,1.43,0,0,0-.16.29,3.17,3.17,0,0,0-.11.33c0,.18-.1.38-.14.6l-.06.44a5.05,5.05,0,0,0,0,.87,2.32,2.32,0,0,0,.07.38,6.21,6.21,0,0,1,.13.68h0a8.42,8.42,0,0,1,0,1.22c0,.33,0,.64,0,1,0,.08,0,.16,0,.25s0,.27.06.4a0,0,0,0,0,0,0s0,0,0,0,.07.19.1.29,0,.14.07.2.07.1.09.15l0,.07a2.07,2.07,0,0,0,.19.32,3.27,3.27,0,0,0,.47.51l0,0a4.54,4.54,0,0,0,1.18.66c.23.1.47.18.71.26l1-1.43L72.6,64.16,74,62.26C73.86,62,73.74,61.77,73.62,61.55Z"/><path class="cls-11" d="M77,66.39a6.6,6.6,0,0,0-1.24-1.8c-.23-.26-.46-.48-.67-.69s-.37-.38-.51-.54l0,0h0A6.8,6.8,0,0,1,74,62.26l-1.38,1.9L64.81,74.91l-1,1.43A5.08,5.08,0,0,1,66,77.44a1.89,1.89,0,0,0,.63.45,3.23,3.23,0,0,0,1.09.31,3.07,3.07,0,0,0,.74,0,3.69,3.69,0,0,0,.45-.11,2.44,2.44,0,0,0,.44-.19,7.59,7.59,0,0,1,1.69-.7,8,8,0,0,1,.81-.2l.79-.14h0l.13,0,.27,0,.39-.07.27,0,.25,0h0a3.56,3.56,0,0,0,1.62-1,6.17,6.17,0,0,0,1-1.14,2.57,2.57,0,0,0,.56-1.74.57.57,0,0,0,0-.13C76.83,70.78,77.71,67.91,77,66.39Z"/><path class="cls-11" d="M73,60.74a1.41,1.41,0,0,1,.45.46,1.41,1.41,0,0,0-.45-.46,2,2,0,0,0-.56-.19h0A2,2,0,0,1,73,60.74Z"/><path class="cls-11" d="M77,66.39h0a6.6,6.6,0,0,0-1.24-1.8A6.6,6.6,0,0,1,77,66.39Z"/><polygon class="cls-11" points="60.76 70.96 60.76 70.96 60.76 70.96 60.76 70.96"/><path class="cls-11" d="M66.58,61.82c-.61.06-1.14,0-1.73.12h0c.79-.09,1.46,0,2.39-.2l.33-.06-.33.06C67,61.78,66.79,61.8,66.58,61.82Z"/><path class="cls-11" d="M60.76,68c0,.18-.1.38-.14.6C60.66,68.37,60.71,68.17,60.76,68Z"/><path class="cls-11" d="M61.52,66.56a3.53,3.53,0,0,0,.18-.83h0A3.53,3.53,0,0,1,61.52,66.56Z"/><path class="cls-11" d="M69.57,61.07c-.23.1-.46.18-.67.25l-.14,0c.26-.08.52-.17.81-.29l.41-.14h0Z"/><path class="cls-11" d="M66.58,61.82c-.61.06-1.14,0-1.73.12h0C65.44,61.87,66,61.88,66.58,61.82Z"/><path class="cls-11" d="M74.61,63.36l0,0h0Z"/><path class="cls-11" d="M72.61,76.84l.2,0h-.07Z"/><path class="cls-11" d="M60.63,70.28a6.21,6.21,0,0,1,.13.68h0a6.21,6.21,0,0,0-.13-.68,2.32,2.32,0,0,1-.07-.38A2.32,2.32,0,0,0,60.63,70.28Z"/><path class="cls-11" d="M73.4,76.71l.52-.08-.25,0Z"/><path class="cls-11" d="M71.81,77l.79-.14h0Z"/><path class="cls-11" d="M60.88,73.86h0c0,.09.07.19.1.29h0C61,74.05,60.9,74,60.88,73.86Z"/><path class="cls-11" d="M70,60.93h0l-.41.14c-.23.1-.46.18-.67.25.21-.07.44-.15.67-.25Z"/><path class="cls-11" d="M61.14,74.5l0,.07,0-.07Z"/><path class="cls-11" d="M72.39,60.55l-.13,0,.13,0Z"/><path class="cls-11" d="M61.7,65.73l.06-.7-.06.7Z"/><path class="cls-11" d="M64.84,61.94l-.24,0,.14,0Z"/><path class="cls-11" d="M60.87,67.66a1.43,1.43,0,0,1,.16-.29h0A1.43,1.43,0,0,0,60.87,67.66Z"/><path class="cls-11" d="M72.23,60.49s-.12,0-.17,0h0S72.18,60.48,72.23,60.49Z"/><path class="cls-11" d="M60.78,73.14h0c0,.09,0,.17,0,.26h0C60.79,73.3,60.79,73.22,60.78,73.14Z"/><path class="cls-11" d="M60.86,73.79a0,0,0,0,0,0,0,0,0,0,0,1,0,0Z"/><path class="cls-11" d="M60.87,73.82s0,0,0,0h0S60.87,73.83,60.87,73.82Z"/><path class="cls-11" d="M64.85,61.94h0l-.25,0h0l.24,0Z"/><path class="cls-11" d="M61.05,74.35c0-.06,0-.13-.07-.2h0a3.73,3.73,0,0,0,.16.35h0S61.07,74.4,61.05,74.35Z"/><path class="cls-11" d="M70,60.93h0c.2-.07.41-.16.59-.21h0C70.39,60.77,70.18,60.86,70,60.93Z"/><path class="cls-11" d="M71.42,60.51h0a6.23,6.23,0,0,0-.78.19h0A5.6,5.6,0,0,1,71.42,60.51Z"/><path class="cls-11" d="M70,60.93c.2-.07.41-.16.59-.21h0c-.18.05-.39.14-.59.21Z"/><path class="cls-11" d="M70.57,60.72l.06,0h-.06Z"/><path class="cls-11" d="M70.58,60.71h0Z"/><path class="cls-9" d="M68.78,70.73a.28.28,0,0,1,.18,0,.53.53,0,0,1,.21.21l0,.12a.25.25,0,0,1,0,.22l0,.09a.26.26,0,0,1-.19.13,5.2,5.2,0,0,0-2.14.71c-.07.05-.11.1-.17.15l-.26.37a.86.86,0,0,0-.06.51.66.66,0,0,0,.47.53,2.28,2.28,0,0,0,1.2.09,3.47,3.47,0,0,0,2-.93,1.65,1.65,0,0,0,.56-1.48,1.14,1.14,0,0,0-.08-.33,1.1,1.1,0,0,0-.19-.29,2.64,2.64,0,0,0-.68-.64l-.89-.61-1,1.33c.25-.06.51-.11.8-.16Z"/><path class="cls-9" d="M69.82,67.39l-.28,0a.25.25,0,0,1-.15,0,.53.53,0,0,1-.23-.24V67a.25.25,0,0,1,0-.17c0-.08.15-.21.24-.22a2.73,2.73,0,0,0,1.24-.45.53.53,0,0,0,.29-.58.34.34,0,0,0-.25-.29,1.58,1.58,0,0,0-.77,0,2.42,2.42,0,0,0-1.36.65,1.18,1.18,0,0,0-.4,1,1.08,1.08,0,0,0,.27.53,3.82,3.82,0,0,0,.79.72l.27.18.83-1.14c-.11,0-.19.06-.29.07Z"/><path class="cls-9" d="M66.36,72.76l.26-.37A1,1,0,0,0,66.36,72.76Z"/><path class="cls-10" d="M66.79,72.24a5.2,5.2,0,0,1,2.14-.71.26.26,0,0,0,.19-.13l0-.09a.25.25,0,0,0,0-.22l0-.12a.53.53,0,0,0-.21-.21.28.28,0,0,0-.18,0l-.3,0c-.29,0-.55.1-.8.16l-1.06,1.45C66.68,72.34,66.72,72.29,66.79,72.24Z"/><path class="cls-13" d="M71.6,64.47a2.82,2.82,0,0,0-1.51-.08,4.6,4.6,0,0,0-2.47,1.12,2.17,2.17,0,0,0-.82,2,2.05,2.05,0,0,0,.46,1,4.05,4.05,0,0,0,.94.84l.44.3.86-1.19-.27-.18a3.82,3.82,0,0,1-.79-.72,1.08,1.08,0,0,1-.27-.53,1.18,1.18,0,0,1,.4-1,2.42,2.42,0,0,1,1.36-.65,1.58,1.58,0,0,1,.77,0,.34.34,0,0,1,.25.29.53.53,0,0,1-.29.58,2.73,2.73,0,0,1-1.24.45c-.09,0-.2.14-.24.22a.25.25,0,0,0,0,.17v.11a.53.53,0,0,0,.23.24.25.25,0,0,0,.15,0l.28,0,.22,0c.1,0,.18,0,.29-.07l1.78-2.46A1.19,1.19,0,0,0,71.6,64.47Z"/><path class="cls-10" d="M72.11,64.82l-1.78,2.46a3.63,3.63,0,0,0,1.45-.61,1.32,1.32,0,0,0,.6-1.27A1.08,1.08,0,0,0,72.11,64.82Z"/><path class="cls-10" d="M69.53,70.22a2.64,2.64,0,0,1,.68.64,1.1,1.1,0,0,1,.19.29,1.14,1.14,0,0,1,.08.33A1.65,1.65,0,0,1,69.92,73a3.47,3.47,0,0,1-2,.93,2.28,2.28,0,0,1-1.2-.09.66.66,0,0,1-.47-.53.86.86,0,0,1,.06-.51L65.24,74.3a1.85,1.85,0,0,0,.55.32,4.34,4.34,0,0,0,2.14.12,6.27,6.27,0,0,0,1.82-.59,5.1,5.1,0,0,0,1.4-1.08,3.82,3.82,0,0,0,.62-1A2.14,2.14,0,0,0,71.88,71a2.55,2.55,0,0,0-.41-1,3.43,3.43,0,0,0-.86-.79l-1.11-.77-.86,1.19Z"/><path class="cls-13" d="M66.62,72.39l1.06-1.45a6.14,6.14,0,0,0-2.07.78,1.65,1.65,0,0,0-.9,1.69,1.38,1.38,0,0,0,.53.89l1.12-1.54A1,1,0,0,1,66.62,72.39Z"/><path class="cls-14" d="M60.77,64l-.37.41-.07.07-1.09,1.21-1.65,1.83-.91,1,0,0-.69.78-1.3,1.45-.93,1h0l-.09.1-.19.22-.1.1-.05.06,0,.06s0,0,0,0h0l-.06.08-.88,1L47.44,78.8l0,0L32.59,95.27l-2.33,2.59-.1.11-.46.51a3.55,3.55,0,0,1-1.78-2.26l-.18-.67-.08-.29h0l-.22-.81h0l-2-7.22L16.61,54.89l-.06-.22h0l-.17-.6L16.13,53s0,0,0,0A3.63,3.63,0,0,1,16,52a3.08,3.08,0,0,1,0-.53,3.71,3.71,0,0,1,.1-.48,2.62,2.62,0,0,1,.38-.91h0L25.79,53l1.33.42.69.22L28.9,54h0l22.64,7.1,1.33.43,0,0,.48.16h0l.07,0,.06,0,.05,0h.07l.06,0,.08,0h.11l.05,0,1,.3,4.11,1.31.24.06.05,0,1.06.34h0l.29.09Z"/><path class="cls-15" d="M105.45,75a6,6,0,0,1,.21,1.28c0,.24-.92.57-1.9.26L102,75.94l0,0-2.19-.69-19.08-6-2.45-.76-.45-.14-.21-.07-.11,0-.09,0-.88-.28-2.67-.84-2.27-.71-.44-.14-.17,0L70.48,66l-.32-.1-.12,0-.12,0-.13,0-.13,0-.07,0-.27-.08-.32-.1-.55-.17-.83-.26L67.28,65l-1.75-.55-2-.63-.37-.12-.14,0-.2-.06-.41-.13-.25-.08h0l0,0h0l0,0-.08,0-.08,0h0l0,0h0l-.06,0h0l-.25-.08-.28-.09-.07,0L60.75,63c-.15,0-.09-.3.13-.54l.61-.67.22-.25,0,0,.58-.64,1.07-1.17,1-1.07.51-.58.13-.13.1-.11.08-.1.12-.13,1.59-1.76L81.36,39.72c.83-.91,2.19-2.42,3-3.34l5-5.5,1.51-1.68s.62.16,1.35.37l.5.48.29.31.19.22.29.49s.16.57.34,1.24.35,1.27.36,1.32.17.63.35,1.29.59,2.19.92,3.38l.06.21c.32,1.19.86,3.14,1.18,4.34l.47,1.71c.32,1.2.65,2.38.71,2.63s.39,1.43.72,2.62l5.81,21.31.71,2.58C105.16,73.93,105.32,74.49,105.45,75Z"/><path class="cls-16" d="M105.22,74.11c-.41-.15-.85-.32-1.3-.52-1.2-.5-2.49-1-3.5-1.49A4.53,4.53,0,0,1,100,72l-4.75-2-.18-.07-7.47-3.13-2.06-.86-3.27-1.37-2.29-1h0L78,62.76l-.45-.19-3.52-1.48h0l-.2-.09-.08,0-.15-.06-.12-.06-.13,0-.5-.2-.7-.3L71.54,60h-.06L71.35,60h0l-.07,0,0,0-4.11-1.71h0l-1.73-.73-1.65-.69-2.18-.91a3.8,3.8,0,0,0-1.42-.26,4.15,4.15,0,0,0-1.1.14,2,2,0,0,0-.46.13,1,1,0,0,0-.45.13A4.2,4.2,0,0,0,56,57.37L55,58.7l-1,1.36L52.92,61.5l0,0-2.08,2.79-1.16,1.53-.15.21h0L48,68,40.42,78.2,39,80.06l-4.81,6.42-.11.15-2.43,3.26v0l-.52.68-.13.17c-.91,1.2-2.3,3.08-3.38,4.5l.08.29.18.67a3.55,3.55,0,0,0,1.78,2.26,2.7,2.7,0,0,0,1.31.35h.09a.09.09,0,0,0,.07,0l3.71-1,66.39-18.11,2.81-.77s0,0,.06,0a3,3,0,0,0,1.1-1.15.75.75,0,0,0,.1-.2,3.72,3.72,0,0,0,.2-.5,4,4,0,0,0,.14-1.26Z"/><path class="cls-17" d="M105.68,75.8a4,4,0,0,1-.14,1.26,3.72,3.72,0,0,1-.2.5.75.75,0,0,1-.1.2,3,3,0,0,1-1.1,1.15l-2.88.78L34.85,97.8h0l-3.74,1H31a2.7,2.7,0,0,1-1.31-.35,3.55,3.55,0,0,1-1.78-2.26l-.18-.67-.08-.29h0l-.22-.81h0s0,0,0,0c1.11-1.28,2.56-3,3.51-4.08l.11-.16.58-.68,2.6-3,5-5.84L40.64,79,49.46,68.6l1.65-1.95h0l0,0,1.3-1.53.68-.8h0l0,0,.08-.09.08-.1L53.4,64l.17-.19.1-.12h0l0-.05,0,0,1.18-1.39.77-.89.26-.32.75-.87a2.37,2.37,0,0,1,.28-.27h0v0a.48.48,0,0,1,.11-.09,5.19,5.19,0,0,1,.59-.42h0a2.92,2.92,0,0,1,.5-.25v0l.25-.09s0,0,0,0l.14,0h0l.18-.07a1.4,1.4,0,0,1,.24-.06h.06l.08,0h.07l.37-.11.09,0a1,1,0,0,1,.29,0h0a1.11,1.11,0,0,1,.25-.05s0,0,0,0a.33.33,0,0,1,.17,0h0l.33,0h.34a.29.29,0,0,1,.16,0h0a3.18,3.18,0,0,1,.88.15l1.63.58.51.17.24.09.73.24.62.22.33.11.32.12.45.15.3.1,1.25.43,0,0h0l.14.05.09,0,.07,0,0,0,.31.1h0l.08,0,.13,0h0l.82.28h0l1.83.63.47.17,0,0,.09,0,.92.32.4.14.2.06.22.08.27.09h0l.22.08L78,64l1.14.4,2.5.86,2.51.86h0l1.57.55,2,.7,7.31,2.53,4.83,1.67.42.13c1,.36,2.25.79,3.43,1.19a13.28,13.28,0,0,0,1.26.42l.23.82Z"/><path class="cls-16" d="M94.2,33.72c-.67.87-1.46,1.92-2.18,2.88-.45.6-.88,1.17-1.24,1.63l-.12.17-3.07,4.12-4.81,6.41L81.4,50.79l-6.84,9.14-.47.64-.2.26-.09.11,0,0-.06.09-.11.14-.11.14-.63.86h0l-1.6,2.15-.69.92-.35.46-.13.17L70,66h0l-.1.14-.14.17-.17.23,0,0-.41.54-.46.63L67.79,69l-1,1.31L66,71.45l-.1.13,0,0a3.56,3.56,0,0,1-1,.85,4.6,4.6,0,0,1-1.15.53,2.81,2.81,0,0,1-.45.13,1.25,1.25,0,0,1-.26.07.8.8,0,0,1-.21,0,3.14,3.14,0,0,1-1.09.13,4.24,4.24,0,0,1-.71,0l-.2,0-.09,0-.11,0h0l-.15,0a.73.73,0,0,1-.12,0h0l0,0h-.05l0,0-2-.82-.06,0-2.56-1.08-.88-.37-.46-.19-.66-.27-.07,0h0l-.06,0-.23-.09-.11,0L52.88,70,49.46,68.6,48,68l-2.4-1-1.4-.6-7.93-3.33-2.06-.86-7.49-3.12L21.84,57c-.14,0-.27-.09-.43-.16-1-.44-2.3-1-3.52-1.48-.42-.18-.85-.36-1.25-.51,0,0,0,0,0,0l-.06-.22h0l-.17-.6L16.13,53s0,0,0,0A3.63,3.63,0,0,1,16,52a3.73,3.73,0,0,1,.14-1,2.62,2.62,0,0,1,.38-.91L16.6,50l1.14-1,.1-.09.4-.1,62.69-17.1h0l8.87-2.42h.06l.33-.09a3.64,3.64,0,0,1,.66,0,3.14,3.14,0,0,1,1.83.87l.29.31a3.41,3.41,0,0,1,.48.71s0,0,0,0l.66,2.45Z"/><path class="cls-17" d="M94.14,33.54c-.83.94-1.84,2.15-2.7,3.14-.29.35-.57.67-.82,1l-.12.16-3.18,3.73-5,5.83L80.92,49l-8.87,10.4-.34.41,0,0,0,0,0,.07-.06,0,0,0v0l-.07.07-.22.26-.15.18-.5.6-.16.19,0,0-.92,1.08-.14.16-.1.13-.1.12-.09.09L67.29,65v0l-.5.59-.94,1.09-1,1.2a2.05,2.05,0,0,1-.34.32,4.11,4.11,0,0,1-1.32.78,2.78,2.78,0,0,1-.48.18,1.74,1.74,0,0,1-.46.13,3.47,3.47,0,0,1-.46.13,4.15,4.15,0,0,1-1.09.15H60.4a.65.65,0,0,1-.2,0,.11.11,0,0,1-.08,0,.19.19,0,0,1-.13,0h0s0,0,0,0h0a.49.49,0,0,1-.21,0s0,0,0,0a1.79,1.79,0,0,1-.4-.09l-.6-.2-.83-.3-.71-.24-.45-.15h0l0,0-.42-.14L53,67.29l-.05,0h-.06l-.05,0-.17-.06-.09,0-.15-.06h0l-1.23-.42h0l0,0-1.54-.55h0l-2.15-.74L43.58,64l-7.75-2.69-2-.71-7.21-2.48-.11,0-4.82-1.67-.43-.13c-1-.36-2.24-.8-3.43-1.19-.42-.16-.85-.3-1.23-.41v0l-.16-.6L16.13,53s0,0,0,0A4,4,0,0,1,16,52a3.63,3.63,0,0,1,.53-1.9h0A.47.47,0,0,1,16.6,50a2.88,2.88,0,0,1,1.14-1,.67.67,0,0,1,.12-.06l.38-.13,62.69-17.1h0l8.87-2.42h.06l.33-.07a4.46,4.46,0,0,1,.63,0h0a3.19,3.19,0,0,1,1.83.84l.29.31a5.19,5.19,0,0,1,.48.71s0,0,0,0Z"/><path class="cls-9" d="M53.31,65.65l0,0h0a2.58,2.58,0,0,0,.4-.87A2.72,2.72,0,0,1,53.31,65.65Z"/><path class="cls-9" d="M59.87,59.09l.45-.2.13,0Z"/><path class="cls-9" d="M58.69,58.83h0l-.21,0h0Z"/><path class="cls-9" d="M59.14,58.69h0Z"/><path class="cls-9" d="M69.82,69.34a2.61,2.61,0,0,1-.36,1.8,6.82,6.82,0,0,1-.85,1.24,3.63,3.63,0,0,1-1.5,1.13h0c1.24-.36,3.09-2.87,2.71-4.17a274953912051.9,274953912051.9,0,0,0,0-.12S69.81,69.31,69.82,69.34Z"/><path class="cls-9" d="M53.08,66.34a2.44,2.44,0,0,1,.08-.34,1.63,1.63,0,0,0-.07.28S53.08,66.32,53.08,66.34Z"/><path class="cls-9" d="M59.18,58.67l0,0,0,0Z"/><path class="cls-9" d="M59.33,59.29l-.16,0a8.54,8.54,0,0,0,1.15-.44l-.45.2Z"/><path class="cls-9" d="M69.61,72.09a2.31,2.31,0,0,0-.14.19A2.31,2.31,0,0,1,69.61,72.09Z"/><path class="cls-9" d="M53.66,61v0h0Z"/><path class="cls-9" d="M67.66,61.34c-.51-.44-1-.79-1.31-1.09.15.14.35.3.57.48Z"/><path class="cls-9" d="M53.26,62v0h0v0l0,.17h0Z"/><path class="cls-9" d="M57.72,59l-.78.13.78-.13Z"/><path class="cls-9" d="M53.09,68.26a4.07,4.07,0,0,1-.09-.87A4.07,4.07,0,0,0,53.09,68.26Z"/><path class="cls-9" d="M69.81,69.28a7.38,7.38,0,0,1-.19-1.49,7.65,7.65,0,0,0,.18,1.43A.15.15,0,0,1,69.81,69.28Z"/><path class="cls-9" d="M58.85,59.43l.32-.1.16,0Z"/><path class="cls-9" d="M54.21,72.84c.08.1.14.2.23.3a2.87,2.87,0,0,0,.53.45,2.87,2.87,0,0,1-.53-.45C54.35,73,54.29,72.94,54.21,72.84Z"/><path class="cls-9" d="M69.57,65.17c0,.85,0,1.77.05,2.62C69.58,66.94,69.61,66,69.57,65.17Z"/><path class="cls-9" d="M64,57.06h0Z"/><path class="cls-9" d="M56.25,74.14c.24.07.48.13.73.18h0C56.73,74.27,56.49,74.21,56.25,74.14Z"/><path class="cls-9" d="M63.76,57Z"/><path class="cls-9" d="M61,75.75h0Z"/><path class="cls-9" d="M62.64,75.25a3.38,3.38,0,0,1-.41.24l.13-.07a2.09,2.09,0,0,0,.28-.17A8.72,8.72,0,0,1,65,74.09c-.26.08-.52.18-.78.28A8.64,8.64,0,0,0,62.64,75.25Z"/><path class="cls-9" d="M61.8,75.65a3.86,3.86,0,0,1-.74.1h0a3,3,0,0,0,.72-.09l.29-.11.14-.05A3.75,3.75,0,0,1,61.8,75.65Z"/><path class="cls-9" d="M62.09,75.54l.27-.12-.13.07Z"/><path class="cls-9" d="M56.25,74.14A4.73,4.73,0,0,1,55,73.61,4.73,4.73,0,0,0,56.25,74.14Z"/><path class="cls-9" d="M63.68,57.65h0Z"/><path class="cls-9" d="M66,73.81l.2,0,.38-.11-.38.11Z"/><path class="cls-9" d="M53.61,71.06c0-.18,0-.37,0-.56a7.9,7.9,0,0,0-.16-1.21h0A11.93,11.93,0,0,1,53.61,71.06Z"/><path class="cls-9" d="M62.69,57.16h0a6.79,6.79,0,0,0-.82.29h0A6.79,6.79,0,0,1,62.69,57.16Z"/><polygon class="cls-9" points="65.81 73.86 65.81 73.86 65.81 73.86 65.81 73.86"/><path class="cls-9" d="M63.49,57h0a3.89,3.89,0,0,0-.79.12h0A3.89,3.89,0,0,1,63.49,57Z"/><path class="cls-9" d="M53.21,62.28h0a4.76,4.76,0,0,0-.07.61h0A4.76,4.76,0,0,1,53.21,62.28Z"/><path class="cls-9" d="M59.7,75.47a2.49,2.49,0,0,0,.6.21,2.2,2.2,0,0,1-.36-.13A1,1,0,0,1,59.7,75.47Z"/><path class="cls-9" d="M68.48,73.39l-.22.16Z"/><path class="cls-9" d="M53,65a1.86,1.86,0,0,1-.19.33A1.86,1.86,0,0,0,53,65Z"/><path class="cls-9" d="M56.15,60a4,4,0,0,0-1.34.68l-.11.09a2.66,2.66,0,0,0-.83,1.38h0a2.55,2.55,0,0,1,.33-.81,3,3,0,0,1,1.24-1.08,4,4,0,0,1,.81-.3h0A.29.29,0,0,0,56.15,60Z"/><path class="cls-9" d="M52.78,65.33h0a3.38,3.38,0,0,0-.39,1.5h0A3.38,3.38,0,0,1,52.78,65.33Z"/><path class="cls-9" d="M53.12,64.32h0a3.11,3.11,0,0,1,0,.32h0A3.11,3.11,0,0,0,53.12,64.32Z"/><path class="cls-9" d="M53.06,64.71h0A1.8,1.8,0,0,1,53,65h0A1.43,1.43,0,0,0,53.06,64.71Z"/><path class="cls-9" d="M66.76,74.26l-.39.1-.4.11h0l.4-.11.39-.1.51-.15Z"/><path class="cls-9" d="M52.39,66.87h0v0h0Z"/><path class="cls-9" d="M52.4,67.89h0a5.4,5.4,0,0,0,.09.58h0A4.85,4.85,0,0,1,52.4,67.89Z"/><path class="cls-9" d="M65.61,59.22h0a10.6,10.6,0,0,0-.69-1l.25.32C65.32,58.76,65.46,59,65.61,59.22Z"/><path class="cls-9" d="M52.38,67.08h0a6.77,6.77,0,0,0,0,.78h0A6.66,6.66,0,0,1,52.38,67.08Z"/><path class="cls-9" d="M65.61,59.22a6.19,6.19,0,0,0,.72,1h0a6.19,6.19,0,0,1-.72-1Z"/><path class="cls-9" d="M62.49,76.06a2.62,2.62,0,0,0,.51-.3,8,8,0,0,1,2.17-1.05A8,8,0,0,0,63,75.76,2.62,2.62,0,0,1,62.49,76.06Z"/><path class="cls-9" d="M59.26,75.17a1.69,1.69,0,0,0,.44.3,1,1,0,0,0,.24.08,1.76,1.76,0,0,1-.68-.38A5.06,5.06,0,0,0,57,74.32h0A5.06,5.06,0,0,1,59.26,75.17Z"/><path class="cls-9" d="M54,73.56a3.39,3.39,0,0,1-.48-.65h0a3.39,3.39,0,0,0,.48.65,5,5,0,0,0,2.67,1.34h0A5,5,0,0,1,54,73.56Z"/><path class="cls-9" d="M53.22,72.34h0a2.92,2.92,0,0,0,.17.36h0A2.92,2.92,0,0,1,53.22,72.34Z"/><path class="cls-9" d="M58.82,75.62a5.2,5.2,0,0,0-2.17-.72h0a5.2,5.2,0,0,1,2.17.72,2.78,2.78,0,0,0,1.33.66A2.78,2.78,0,0,1,58.82,75.62Z"/><path class="cls-9" d="M53.13,63.81h0c0,.18,0,.35,0,.51h0C53.13,64.16,53.13,64,53.13,63.81Z"/><path class="cls-9" d="M53.83,62.4a5.69,5.69,0,0,0-.07.89,4.79,4.79,0,0,1,0-.64,3.35,3.35,0,0,1,.08-.51h0A1.87,1.87,0,0,0,53.83,62.4Z"/><path class="cls-9" d="M53.14,62.9h0c0,.27,0,.51,0,.74h0C53.12,63.41,53.12,63.17,53.14,62.9Z"/><path class="cls-9" d="M53,71.31h0a4.13,4.13,0,0,0,.21,1h0A4.72,4.72,0,0,1,53,71.31Z"/><path class="cls-18" d="M53.4,69.29c0-.21-.12-.43-.2-.66a1.45,1.45,0,0,1-.11-.37,4.07,4.07,0,0,1-.09-.87c0-.15,0-.29,0-.44a5.39,5.39,0,0,1,.07-.61s0,0,0-.06a.14.14,0,0,1,0,.06A6.79,6.79,0,0,0,53,67.41a5,5,0,0,0,.07.77l.23,1.25a4.73,4.73,0,0,1,.18.91l0,.2.17.91c0-.13,0-.25,0-.39A11.93,11.93,0,0,0,53.4,69.29Z"/><path class="cls-18" d="M56.5,59.88c.58-.12,1.1-.18,1.71-.3l.64-.15.48-.14.54-.2.58-.25.65-.32a3.49,3.49,0,0,1,.39-.19l-.35.15a14.49,14.49,0,0,1-1.8.8C58.42,59.59,57.44,59.65,56.5,59.88Z"/><path class="cls-18" d="M59.62,75.66a4.11,4.11,0,0,0,1.7.18c1.19-.17,2-1,3.11-1.45s1.92-.48,2.84-.85a1.38,1.38,0,0,0,.34-.18,5.92,5.92,0,0,0,2.26-3.07,33.67,33.67,0,0,0-.25-5.62,3.91,3.91,0,0,0-.43-1.73l-.1.06a5,5,0,0,1,.48,2.17c0,.85,0,1.77.05,2.62a7.38,7.38,0,0,0,.19,1.49.15.15,0,0,1,0,.06c.38,1.3-1.47,3.81-2.71,4.17h0l-.51.14-.38.11-.2,0-.2,0h0l-.78.23a8.72,8.72,0,0,0-2.39,1.16,2.09,2.09,0,0,1-.28.17l-.27.12-.29.11a3,3,0,0,1-.72.09h0a3.41,3.41,0,0,1-.73-.07,2.49,2.49,0,0,1-.6-.21,1.69,1.69,0,0,1-.44-.3A5.06,5.06,0,0,0,57,74.32l-.08.13c.39.09.78.18,1.16.3C58.64,75,59,75.48,59.62,75.66Z"/><path class="cls-18" d="M66.35,60.25c.31.3.8.65,1.31,1.09A6.86,6.86,0,0,1,69.09,63l.1-.06c-.06,0-.07-.14-.11-.2a7.34,7.34,0,0,0-1.79-2c-1.15-.94-1.15-.94-1.56-1.59l0-.07-.08.14a6.19,6.19,0,0,0,.72,1Z"/><path class="cls-18" d="M52.44,66.63c0-.08,0-.13,0-.19a2,2,0,0,0-.06.23,10.16,10.16,0,0,0,.13,1.85,3.4,3.4,0,0,0,.07.34c0,.09,0,.18.08.26l-.22-1.19A5.9,5.9,0,0,1,52.44,66.63Z"/><path class="cls-18" d="M54.7,60.75a2.58,2.58,0,0,0-.5.58,2.42,2.42,0,0,0-.33.8A2.66,2.66,0,0,1,54.7,60.75Z"/><path class="cls-18" d="M53.14,64.45c.12-.8,0-1.62.14-2.43a1.68,1.68,0,0,1,.07-.24c0,.07-.06.12-.08.19a1.62,1.62,0,0,0,0,.19s0,.08,0,.12c-.13.77,0,1.54-.11,2.3a.14.14,0,0,0,0,.06.19.19,0,0,1,0,.07,2,2,0,0,1-.07.23A2.13,2.13,0,0,0,53.14,64.45Z"/><path class="cls-18" d="M53.75,71.94a1.66,1.66,0,0,0,.06.16,3,3,0,0,1-.11-.4Z"/><path class="cls-18" d="M59.36,58.67a21.93,21.93,0,0,1,3.3-1.43c1.31-.28,1.71.43,1.71.43s-.11,0-.16,0l-.37,0a2,2,0,0,1,.58.13,1.51,1.51,0,0,1,.5.41,10.6,10.6,0,0,1,.69,1l.08-.14c-1-1.61-1.22-1.81-2-2a2.73,2.73,0,0,0-1.31.16,6.3,6.3,0,0,0-.72.28l-.13.06-.34.16-.39.19-.25.13.08,0-.12.06-.12.06-.1,0-.19.08-.08,0-.31.13-.12.05-.07,0-.26.09c-.13,0-.24.11-.37.15-1,.32-2.12.34-3.15.68a5.27,5.27,0,0,0-.51.19l-.23.12a4.21,4.21,0,0,0-.66.44l-.08.08-.06.07a4.06,4.06,0,0,1,1.64-.9C57,59.14,58.23,59.11,59.36,58.67Z"/><path class="cls-18" d="M53.74,64.47a3.56,3.56,0,0,1-.43,1.18,2.72,2.72,0,0,0,.38-.82,3.42,3.42,0,0,0,.08-.84A3.87,3.87,0,0,1,53.74,64.47Z"/><path class="cls-18" d="M63.5,57.67a1.89,1.89,0,0,0-.47,0l-.11,0A3.22,3.22,0,0,1,63.5,57.67Z"/><path class="cls-18" d="M53.39,72.55A3.49,3.49,0,0,0,55.11,74l.23.09a10.87,10.87,0,0,0,1.56.41l.08-.13c-.25,0-.49-.11-.73-.18A4.73,4.73,0,0,1,55,73.61l0,0a2.87,2.87,0,0,1-.53-.45c-.09-.1-.15-.2-.23-.3l-.05-.06a2.9,2.9,0,0,1,.31.54,2.45,2.45,0,0,1-1.3-1.51l-.27-1.49L53,71A8.3,8.3,0,0,0,53.39,72.55Z"/><path class="cls-18" d="M55.87,60.06a3.62,3.62,0,0,0-1.06.6A4,4,0,0,1,56.15,60Z"/><path class="cls-18" d="M53.6,61.15l.15-.25,0,0s0,.05-.06.08S53.63,61.11,53.6,61.15Z"/><path class="cls-18" d="M53.85,62.22c0,.06,0,.12,0,.18a1.87,1.87,0,0,1,0-.25A.19.19,0,0,0,53.85,62.22Z"/><path class="cls-18" d="M59.52,58.55h0Z"/><path class="cls-18" d="M54,72.44c0-.09-.09-.18-.13-.28A2.39,2.39,0,0,0,54,72.44Z"/><path class="cls-18" d="M69.19,62.94h0l-.1.06h0Z"/><path class="cls-18" d="M59.72,58.47h0l-.12.05h0Z"/><path class="cls-18" d="M53.35,61.78h0c0,.07-.06.12-.08.19h0C53.29,61.9,53.33,61.85,53.35,61.78Z"/><path class="cls-18" d="M53.23,62.16h0s0,.07,0,.11h0S53.22,62.2,53.23,62.16Z"/><path class="cls-18" d="M53.66,61h0s0,.09-.06.13h0S53.63,61.06,53.66,61Z"/><path class="cls-18" d="M61.54,57.61l-.34.16.34-.16Z"/><path class="cls-18" d="M53.08,64.64h0a.25.25,0,0,1,0,.07h0A.19.19,0,0,0,53.08,64.64Z"/><path class="cls-18" d="M60.11,58.3l-.08,0h0Z"/><path class="cls-18" d="M59.55,58.54Z"/><path class="cls-18" d="M53.22,72.31a3.29,3.29,0,0,0,2,1.87,9.54,9.54,0,0,0,1.59.42l.08-.15A10.87,10.87,0,0,1,55.34,74L55.11,74a3.49,3.49,0,0,1-1.72-1.4A8.3,8.3,0,0,1,53,71l0,.33C53.1,71.84,53.19,72.23,53.22,72.31Z"/><path class="cls-18" d="M69.19,62.94h0l.14-.08h0Z"/><path class="cls-18" d="M69.19,62.94l.14-.07h0l-.14.08Z"/><path class="cls-18" d="M54.27,60.3l.08-.08Z"/><path class="cls-18" d="M55.14,59.7l.08,0Z"/><path class="cls-18" d="M52.39,66.91v0Z"/><path class="cls-18" d="M53.26,62l0,.16a1.62,1.62,0,0,1,0-.19Z"/><path class="cls-18" d="M53.14,62.9c0,.27,0,.51,0,.73,0-.19,0-.41,0-.63C53.14,63,53.13,62.93,53.14,62.9Z"/><path class="cls-18" d="M52.4,67.89a4.85,4.85,0,0,0,.09.57l0-.31A2,2,0,0,1,52.4,67.89Z"/><path class="cls-18" d="M67.29,60.74a7.34,7.34,0,0,1,1.79,2c0,.06,0,.18.11.2l.14-.08h0c-.07,0-.08-.14-.11-.2a6.55,6.55,0,0,0-.74-1c-.62-.72-1.49-1.16-2.12-1.87a5.23,5.23,0,0,1-.59-.83l-.08.14,0,.07C66.14,59.8,66.14,59.8,67.29,60.74Z"/><path class="cls-18" d="M69.62,64.67a33.67,33.67,0,0,1,.25,5.62,5.92,5.92,0,0,1-2.26,3.07,1.38,1.38,0,0,1-.34.18c-.92.37-1.91.5-2.84.85s-1.92,1.28-3.11,1.45a4.11,4.11,0,0,1-1.7-.18c-.59-.18-1-.71-1.56-.91-.38-.12-.77-.21-1.16-.3l-.08.15a9.62,9.62,0,0,1,1.37.38c.53.2.88.7,1.44.86A4.18,4.18,0,0,0,61.2,76c1.26-.12,2.14-1.06,3.26-1.49.91-.34,1.9-.45,2.81-.84a3.31,3.31,0,0,0,1-.65,5.92,5.92,0,0,0,1.83-3.22s-.1-5.51-.73-6.92l-.14.07A3.91,3.91,0,0,1,69.62,64.67Z"/><path class="cls-18" d="M52.38,67.08a6.66,6.66,0,0,0,0,.77,2.62,2.62,0,0,1,0-.28A4.44,4.44,0,0,1,52.38,67.08Z"/><path class="cls-18" d="M53.72,60.94l-.06.06v0S53.7,61,53.72,60.94Z"/><path class="cls-18" d="M55.14,59.7a1.48,1.48,0,0,0-.13.08l.23-.12Z"/><path class="cls-18" d="M53.21,62.28a4.76,4.76,0,0,0-.07.61s0,.07,0,.11c0,.27,0,.54,0,.81s0,.35,0,.51v0a3.11,3.11,0,0,1,0,.32.14.14,0,0,1,0-.06C53.24,63.82,53.08,63.05,53.21,62.28Z"/><path class="cls-18" d="M53.06,64.71A1.43,1.43,0,0,1,53,65a.05.05,0,0,0,0,0A2,2,0,0,0,53.06,64.71Z"/><path class="cls-18" d="M58.65,58.84l-.17,0a7.37,7.37,0,0,1-.76.16c-.46.08-.92.15-1.37.25l-.36.1a1.7,1.7,0,0,0-.24.09c1-.34,2.12-.36,3.15-.68.13,0,.24-.1.37-.15l-.09,0,0,0h0Z"/><path class="cls-18" d="M56.05,59.35l-.07,0h0Z"/><path class="cls-18" d="M64.81,57.54a1.17,1.17,0,0,0-.32-.24,2.29,2.29,0,0,0-1.8-.14,6.79,6.79,0,0,0-.82.29l-.2.1a6.3,6.3,0,0,1,.72-.28,2.73,2.73,0,0,1,1.31-.16c.77.16,1,.36,2,2l.08-.14A9.63,9.63,0,0,0,64.81,57.54Z"/><path class="cls-18" d="M52.4,67.57c0,.17,0,.37.06.58s0,.25.08.37a10.16,10.16,0,0,1-.13-1.85,2,2,0,0,1,.06-.23c0-.11,0-.21,0-.32A5.18,5.18,0,0,1,53,65a1.86,1.86,0,0,1-.19.33h0a3.38,3.38,0,0,0-.39,1.5C52.38,67.07,52.39,67.32,52.4,67.57Z"/><path class="cls-18" d="M52.49,68.46h0l.07.22h0C52.54,68.62,52.51,68.54,52.49,68.46Z"/><path class="cls-18" d="M53,71h0l0,.33h0Z"/><path class="cls-18" d="M52.4,67.85h0v0h0Z"/><path class="cls-18" d="M52.39,66.83h0v0h0Z"/><path class="cls-18" d="M52.39,66.91h0c0,.06,0,.11,0,.16h0C52.39,67,52.38,67,52.39,66.91Z"/><path class="cls-18" d="M52.56,68.69c0,.06,0,.12,0,.17a3.4,3.4,0,0,1-.07-.34C52.55,68.58,52.55,68.63,52.56,68.69Z"/><path class="cls-18" d="M52.61,68.86s0-.11,0-.17h0c0,.06,0,.12,0,.17a2.76,2.76,0,0,1,.08.27h0C52.66,69,52.65,69,52.61,68.86Z"/><path class="cls-18" d="M52.9,70.32h0L53,71h0Z"/><path class="cls-18" d="M54,73.56a3.39,3.39,0,0,1-.48-.65A3.39,3.39,0,0,0,54,73.56Z"/><path class="cls-18" d="M70.06,69.79A5.92,5.92,0,0,1,68.23,73a3.31,3.31,0,0,1-1,.65c-.91.39-1.9.5-2.81.84-1.12.43-2,1.37-3.26,1.49a4.18,4.18,0,0,1-1.57-.15c-.56-.16-.91-.66-1.44-.86a9.62,9.62,0,0,0-1.37-.38l-.08.13a7.61,7.61,0,0,1,1.55.44c.46.2.79.64,1.28.8a4.16,4.16,0,0,0,1.47.18A3.62,3.62,0,0,0,62,76c1-.37,1.81-1.08,2.82-1.43.85-.29,1.74-.41,2.57-.75l.21-.11a6.31,6.31,0,0,0,2.38-2.89c.58-1.43-.13-7.19-.49-8l-.12.08C70,64.28,70.07,69.75,70.06,69.79Z"/><path class="cls-18" d="M69.43,62.81l-.1,0h0l.12-.08h0Z"/><path class="cls-18" d="M52.39,66.83v.08c0,.06,0,.11,0,.17a4.44,4.44,0,0,0,0,.49C52.39,67.32,52.38,67.07,52.39,66.83Z"/><path class="cls-18" d="M53.22,72.34a2.92,2.92,0,0,0,.17.36l-.08-.17Z"/><path class="cls-18" d="M55.23,74.18a3.29,3.29,0,0,1-2-1.87c0-.08-.12-.47-.23-1a4.72,4.72,0,0,0,.21,1c0,.09.08.18.11.26a3.4,3.4,0,0,0,1.62,1.66l.23.11.23.09a9.2,9.2,0,0,0,1.35.34l.08-.13A9.54,9.54,0,0,1,55.23,74.18Z"/><path class="cls-18" d="M69.33,62.86Z"/><path class="cls-18" d="M69.33,62.86h0l.1,0-.09,0Z"/><path class="cls-18" d="M52.4,67.57a2.62,2.62,0,0,0,0,.28v0a2,2,0,0,0,.06.26C52.43,67.94,52.41,67.74,52.4,67.57Z"/><path class="cls-18" d="M52.46,68.15l0,.31c0,.08,0,.16.07.23s0-.11,0-.17S52.48,68.28,52.46,68.15Z"/><path class="cls-18" d="M53,65h0Z"/><path class="cls-18" d="M53,67.41a6.79,6.79,0,0,1,.08-1.07.14.14,0,0,0,0-.06,1.63,1.63,0,0,1,.07-.28,1,1,0,0,1,.13-.3h0l0,0a3.56,3.56,0,0,0,.43-1.18,3.87,3.87,0,0,0,0-.48c0-.23,0-.46,0-.7a5.69,5.69,0,0,1,.07-.89c0-.06,0-.12,0-.18a.19.19,0,0,1,0-.07h0a2.42,2.42,0,0,1,.33-.8,2.58,2.58,0,0,1,.5-.58l.11-.09a3.62,3.62,0,0,1,1.06-.6l.28-.08a.29.29,0,0,1,.1,0h0c.07,0,.15-.05.23-.06h0c.94-.23,1.92-.29,2.84-.6a14.49,14.49,0,0,0,1.8-.8,14.94,14.94,0,0,1-3.47,1.11,7.82,7.82,0,0,0-1.82.41,3.39,3.39,0,0,0-1.69,1.31,2.69,2.69,0,0,0-.36.9,21.06,21.06,0,0,0-.11,2.25c-.06.68-.55,1.21-.66,1.87a5.4,5.4,0,0,0,0,1.86,10.66,10.66,0,0,0,.3,1.24l-.23-1.25A5,5,0,0,1,53,67.41Z"/><path class="cls-18" d="M54.47,73.32a2.9,2.9,0,0,0-.31-.54l-.2-.34a2.39,2.39,0,0,1-.13-.28l0,0v0a1.66,1.66,0,0,1-.06-.16l0-.24c0-.08,0-.16,0-.25l-.17-.91a18.75,18.75,0,0,0,.23,1.9c-.18-.11-.42-.4-.57-1.19s-.06-1.42-.2-2.12c-.1-.53-.37-1-.43-1.56a5.43,5.43,0,0,1,0-1.42,2.29,2.29,0,0,1,.08-.28,3.43,3.43,0,0,0-.17.57c0,.06,0,.11,0,.19a5.9,5.9,0,0,0,0,1.3l.22,1.19a5.82,5.82,0,0,1,.21,1.2l.27,1.49A2.45,2.45,0,0,0,54.47,73.32Z"/><path class="cls-18" d="M53.6,61.15h0a3.94,3.94,0,0,0-.25.63h0A3.94,3.94,0,0,1,53.6,61.15Z"/><path class="cls-18" d="M52.88,65.28c0-.11.08-.23.11-.34a.05.05,0,0,1,0,0v0a5.18,5.18,0,0,0-.46,1.12c0,.11,0,.21,0,.32a3.43,3.43,0,0,1,.17-.57A5.19,5.19,0,0,1,52.88,65.28Z"/><path class="cls-18" d="M52.69,69.12h0a5.62,5.62,0,0,1,.21,1.19h0A5.82,5.82,0,0,0,52.69,69.12Z"/><path class="cls-18" d="M53.39,72.7h0a2.12,2.12,0,0,0,.11.21h0A1.06,1.06,0,0,1,53.39,72.7Z"/><path class="cls-18" d="M53.2,72.27h0a.64.64,0,0,0,0,.07h0A.64.64,0,0,1,53.2,72.27Z"/><path class="cls-18" d="M69.45,62.79h0l.18-.1h0l0,0Z"/><path class="cls-18" d="M66.37,74.36l.39-.1.51-.15h0a3.1,3.1,0,0,0,1-.56l.22-.16a7.12,7.12,0,0,0,1-1.11,2.31,2.31,0,0,1,.14-.19,3.91,3.91,0,0,0,.82-2.91c-.46-1.68.17-4.79-.8-6.49l-.18.1c.36.8,1.07,6.56.49,8a6.31,6.31,0,0,1-2.38,2.89l-.21.11c-.83.34-1.72.46-2.57.75C63.77,74.88,63,75.59,62,76a3.62,3.62,0,0,1-.92.19A4.16,4.16,0,0,1,59.57,76c-.49-.16-.82-.6-1.28-.8a7.61,7.61,0,0,0-1.55-.44l-.09.17a5.2,5.2,0,0,1,2.17.72,2.78,2.78,0,0,0,1.33.66,3.71,3.71,0,0,0,1.81,0,3.35,3.35,0,0,0,.53-.19,2.62,2.62,0,0,0,.51-.3,8,8,0,0,1,2.17-1.05c.27-.09.53-.17.8-.24h0Z"/><path class="cls-18" d="M55.16,74.3l-.23-.11a3.4,3.4,0,0,1-1.62-1.66l.08.17a1.06,1.06,0,0,0,.11.21,3.39,3.39,0,0,0,.48.65,5,5,0,0,0,2.67,1.34l.09-.17a9.2,9.2,0,0,1-1.35-.34Z"/><path class="cls-18" d="M53.2,72.27a.64.64,0,0,0,0,.07l.09.19C53.28,72.45,53.23,72.36,53.2,72.27Z"/><path class="cls-18" d="M53.29,69.43l.2,1.11,0-.2A4.73,4.73,0,0,0,53.29,69.43Z"/><path class="cls-18" d="M62.86,57.75l-.2.06-.55.22a6.42,6.42,0,0,1,.76-.27h.05l.11,0Z"/><path class="cls-18" d="M62.05,58.06c-.31.13-.61.27-.91.42l.35-.15C61.68,58.24,61.88,58.13,62.05,58.06Z"/><path class="cls-18" d="M53.32,65.5h0a.42.42,0,0,1,0-.1S53.34,65.46,53.32,65.5Zm0,0h0a.42.42,0,0,1,0-.1S53.34,65.46,53.32,65.5Zm8.43-7.81-.22.1L61,58a2.51,2.51,0,0,1-.28.13l-.42.19-.22.12h0l-.1,0a11.68,11.68,0,0,1-1.81.65,3,3,0,0,1-.41.09h0c-.61.12-1.24.15-1.83.31a3.82,3.82,0,0,0-.48.15,2.53,2.53,0,0,0-.44.19l-.23.13-.31.22a2.69,2.69,0,0,0-.84,1l-.08.16s0,.11-.05.16a.09.09,0,0,0,0,0c0,.16-.07.3-.1.43a17.48,17.48,0,0,0-.07,2,.78.78,0,0,1,0,.21,3.59,3.59,0,0,1-.34.93c-.08.19-.16.38-.23.59a.78.78,0,0,0,0,.14.13.13,0,0,0,0,.08.11.11,0,0,0,0,.06,6.68,6.68,0,0,0-.07,1c0,.12,0,.22,0,.31s0,.11,0,.15c.06.54.33,1,.43,1.56a5,5,0,0,1,.09,1,.22.22,0,0,0,0,.11,6.34,6.34,0,0,0,.1,1.06,2.44,2.44,0,0,0,.08.34,2,2,0,0,0,.2.53,1,1,0,0,0,.28.31c0-.22-.06-.39-.09-.53a2.89,2.89,0,0,0,0-.29c0-.11,0-.22,0-.36s0-.41-.07-.72l-.05-.28-.15-.82c-.11-.42-.23-.82-.3-1.24a2.59,2.59,0,0,1-.05-.54h0a2.43,2.43,0,0,1,0-.39v0a5,5,0,0,1,.09-.91,2.76,2.76,0,0,1,.24-.7,2.49,2.49,0,0,0-.3.8,5.24,5.24,0,0,0-.09.82,1.42,1.42,0,0,0,0,.3v.35c0,.14.14.27,0,.41s-.06,0-.08,0a1.92,1.92,0,0,1-.21-.86,1.69,1.69,0,0,1,0-.33c0-.22,0-.5,0-.81a2.36,2.36,0,0,1,0-.28,2.76,2.76,0,0,1,.28-.74,3.94,3.94,0,0,0,.38-1,1.77,1.77,0,0,0,0-.23,10.17,10.17,0,0,1,.16-2.34v0a2.79,2.79,0,0,1,1-1.4,3.25,3.25,0,0,1,1.24-.59l1.08-.16s0,0,0,.08-.12,0-.17,0a5,5,0,0,0-1.77.79A3,3,0,0,0,54,61.54a1.48,1.48,0,0,0-.1.27,3.73,3.73,0,0,0-.16.54,6,6,0,0,0,0,1.28h0a7.25,7.25,0,0,1-.05,1,3.21,3.21,0,0,1-.24.72,2.91,2.91,0,0,0,.32-.94c0-.15,0-.29,0-.43s0-.23,0-.34v-.11c0-.14,0-.28,0-.42s0-.31,0-.47a3.7,3.7,0,0,1,.07-.48,3.64,3.64,0,0,1,.11-.39,2.55,2.55,0,0,1,.13-.29s0,0,0-.05a.54.54,0,0,1,.09-.17,3.47,3.47,0,0,1,.29-.38h0l.11-.12a2.3,2.3,0,0,1,.37-.32h0l.19-.13a3.9,3.9,0,0,1,.71-.34,3.45,3.45,0,0,1,.42-.14l.14,0a.15.15,0,0,1,.09,0,5.82,5.82,0,0,1,.63-.14l.55-.09a14.31,14.31,0,0,0,3.45-1.1l.16-.06s0,0,0,0a.06.06,0,0,0,0,0h0l0,0h.05l.28-.14.27-.13h.07a4.3,4.3,0,0,1,.41-.16h0s0,0,0,0,.05,0,.08,0l.2-.07h0l.16,0c.19-.08.38-.17.57-.24l.08,0C63.31,57.13,63,57.13,61.75,57.69ZM53.13,69.43a.07.07,0,0,1,.09,0,4.78,4.78,0,0,1,.16.8s0,.08,0,.12,0,.65.08,1c0,.18,0,.31,0,.31s0,.06-.08,0a1,1,0,0,1-.08-.21c0-.16-.1-.39-.11-.5s0-.52-.06-.87S53.12,69.44,53.13,69.43Zm9.78-11.86c-.16.07-.18.07-1.71.8h0l-.56.25a7.77,7.77,0,0,1-2.65.81s0-.08,0-.09.08,0,.11,0a11.67,11.67,0,0,0,2.26-.89s0,0,0,0l.39-.2c2-1.05,2.34-.8,2.35-.8s0,.06,0,.09S63,57.55,62.91,57.57ZM53.34,65.5a.42.42,0,0,1,0-.1s0,.06-.06.1Zm0,0h0a.42.42,0,0,1,0-.1S53.34,65.46,53.32,65.5Z"/><path class="cls-18" d="M52.88,65.28a5.19,5.19,0,0,0-.24.59Z"/><path class="cls-18" d="M62.7,57.15h0Z"/><path class="cls-18" d="M61.87,57.45h0l-.22.11h0Z"/><path class="cls-18" d="M61.54,57.61l.13-.06h0Z"/><path class="cls-18" d="M61.65,57.56h0l-.11,0h0Z"/><path class="cls-18" d="M64.66,57.25a1.69,1.69,0,0,0-.36-.12l.12,0A2.25,2.25,0,0,1,64.66,57.25Z"/><path class="cls-18" d="M63.49,57a3.89,3.89,0,0,0-.79.12h0a2.29,2.29,0,0,1,1.8.14,1.17,1.17,0,0,1,.32.24,9.63,9.63,0,0,1,1,1.4l.09-.16-.06-.09a3.4,3.4,0,0,0-1.38-1.52l-.33-.09-.14,0h0Z"/><path class="cls-18" d="M63.58,57h0Z"/><path class="cls-18" d="M61.65,57.56h0l.2-.1Z"/><path class="cls-18" d="M69.43,62.81l0,0h0Z"/><path class="cls-18" d="M64.16,57.09h0Z"/><path class="cls-18" d="M69.43,62.81l0,0h0l-.11.07Z"/><path class="cls-18" d="M68.48,61.64a6.55,6.55,0,0,1,.74,1c0,.06,0,.19.11.2h0l.11-.07c-.06,0-.07-.14-.11-.2a7.85,7.85,0,0,0-2.13-2.29,4.1,4.1,0,0,1-1.35-1.52l-.09.16a5.23,5.23,0,0,0,.59.83C67,60.48,67.86,60.92,68.48,61.64Z"/><path class="cls-18" d="M69.54,62.75l-.09,0h0Z"/><path class="cls-18" d="M69.45,62.79l.13-.07,0,0-.09,0Z"/><path class="cls-18" d="M56.81,59.53l-1.08.16a3.25,3.25,0,0,0-1.24.59,2.79,2.79,0,0,0-1,1.4v0A10.17,10.17,0,0,0,53.32,64a1.77,1.77,0,0,1,0,.23,3.94,3.94,0,0,1-.38,1,2.76,2.76,0,0,0-.28.74,2.36,2.36,0,0,0,0,.28c0,.31,0,.59,0,.81a1.69,1.69,0,0,0,0,.33,1.92,1.92,0,0,0,.21.86s.07,0,.08,0,0-.27,0-.41v-.35a1.42,1.42,0,0,1,0-.3,5.24,5.24,0,0,1,.09-.82,2.49,2.49,0,0,1,.3-.8.89.89,0,0,1,0-.13s0-.08.06-.1a3.21,3.21,0,0,0,.24-.72,7.25,7.25,0,0,0,.05-1h0a6,6,0,0,1,0-1.28,3.73,3.73,0,0,1,.16-.54,1.48,1.48,0,0,1,.1-.27,3,3,0,0,1,.92-1.09,5,5,0,0,1,1.77-.79s.15,0,.17,0S56.83,59.55,56.81,59.53Zm-1,.28a.54.54,0,0,1-.26.2,5.58,5.58,0,0,0-.66.42,3.59,3.59,0,0,0-.82.93,2.17,2.17,0,0,0-.19.44,5.1,5.1,0,0,0-.27,1.92v0a4.1,4.1,0,0,1,0,1.11,2.14,2.14,0,0,1-.26.6,3.56,3.56,0,0,0-.28.59c-.11.38-.07.78-.16,1.17a.9.9,0,0,1,0,.16l0,.16h0l0,0s0,0,0-.08a2,2,0,0,1-.05-.36,4,4,0,0,1,0-1,1.27,1.27,0,0,1,.1-.37.19.19,0,0,1,0-.12.37.37,0,0,1,0-.09.31.31,0,0,1,0-.09.56.56,0,0,1,.07-.19,4.52,4.52,0,0,0,.37-1,2,2,0,0,0,0-.42,16.8,16.8,0,0,1,.05-1.88c0-.07,0-.22.09-.37l.05-.14a2.69,2.69,0,0,1,1-1.25h0a3,3,0,0,1,1.24-.53Z"/><path class="cls-18" d="M63.92,57.05h0l-.16,0h0Z"/><path class="cls-18" d="M63.58,57Z"/><path class="cls-18" d="M69.63,62.69h0l0,0Z"/><path class="cls-18" d="M62.66,57.24a21.93,21.93,0,0,0-3.3,1.43c-1.13.44-2.36.47-3.51.8a4.06,4.06,0,0,0-1.64.9,3.37,3.37,0,0,0-.46.53l-.15.25a3.94,3.94,0,0,0-.25.63,1.68,1.68,0,0,0-.07.24c-.17.81,0,1.63-.14,2.43a2.13,2.13,0,0,1-.15.49c0,.11-.07.23-.11.34a3.41,3.41,0,0,0,.34-.94c.11-.75-.06-1.51.09-2.25a3.39,3.39,0,0,1,.26-.81,3.28,3.28,0,0,1,2.3-1.72c.75-.19,1.53-.21,2.28-.4A10.77,10.77,0,0,0,60,58.5c2.86-1.32,3.23-1.49,3.73-1a.19.19,0,0,1-.08,0l-.57.23a1.89,1.89,0,0,1,.47,0l.18,0h0l.13,0,.37,0c.05,0,.14,0,.16,0S64,57,62.66,57.24Z"/><path class="cls-18" d="M64.67,57.25h0a2.25,2.25,0,0,0-.24-.08,3.4,3.4,0,0,1,1.38,1.52l.06.09.1-.18A3.58,3.58,0,0,0,64.67,57.25Z"/><path class="cls-18" d="M63.76,57h-.27l.43,0Z"/><path class="cls-18" d="M64.3,57.13l-.1,0h-.11l.33.09Z"/><path class="cls-18" d="M67.21,60.3a7.85,7.85,0,0,1,2.13,2.29c0,.06,0,.18.11.2l.18-.1a12.06,12.06,0,0,0-2.86-2.91A8.79,8.79,0,0,1,66,58.6l-.1.18A4.1,4.1,0,0,0,67.21,60.3Z"/><path class="cls-18" d="M69.58,62.72l0,0h0l-.09.06Z"/><path class="cls-18" d="M69.45,62.79l.09,0,.09-.06h0l-.18.1Z"/><path class="cls-18" d="M63.09,57.41s-.38-.25-2.35.8l-.39.2s0,0,0,0a11.67,11.67,0,0,1-2.26.89s-.1,0-.11,0,0,.08,0,.09a7.77,7.77,0,0,0,2.65-.81l.56-.25h0c1.53-.73,1.55-.73,1.71-.8s.14,0,.19-.07S63.1,57.43,63.09,57.41Zm-1.82.86-.19.09h0l-.59.26a2.61,2.61,0,0,1-1.11.35c.38-.18.75-.38,1.14-.58h0c.31-.17.6-.32.92-.46a6.39,6.39,0,0,1,1-.32A6.82,6.82,0,0,1,61.27,58.27Z"/><path class="cls-18" d="M54.57,60.31h0a2.69,2.69,0,0,0-1,1.25l-.05.14c0,.15-.07.3-.09.37A16.8,16.8,0,0,0,53.4,64a2,2,0,0,1,0,.42,4.52,4.52,0,0,1-.37,1,.56.56,0,0,0-.07.19.16.16,0,0,1,0-.09l.05-.09a3.77,3.77,0,0,0,.45-1,2.26,2.26,0,0,1,.05.34,2,2,0,0,1-.27.77l-.08.11a3.81,3.81,0,0,0-.43,1.19,3.65,3.65,0,0,1,.06-.94,1.27,1.27,0,0,0-.1.37,4,4,0,0,0,0,1,2,2,0,0,0,.05.36s0,0,0,.08l0,0h0l0-.16a.9.9,0,0,0,0-.16c.09-.39.05-.79.16-1.17a3.56,3.56,0,0,1,.28-.59,2.14,2.14,0,0,0,.26-.6,4.1,4.1,0,0,0,0-1.11v0a5.1,5.1,0,0,1,.27-1.92,2.17,2.17,0,0,1,.19-.44,3.59,3.59,0,0,1,.82-.93,5.58,5.58,0,0,1,.66-.42.54.54,0,0,0,.26-.2l0,0A3,3,0,0,0,54.57,60.31Zm.38,0-.13.12a3.13,3.13,0,0,0-1,1.37c-.1.25-.19.57-.32,1a3.6,3.6,0,0,1,.11-1.06,2.38,2.38,0,0,1,1-1.39h0a2.38,2.38,0,0,1,.64-.31Z"/><path class="cls-18" d="M60.47,58.63a14.28,14.28,0,0,0,2-1l0,0a4.89,4.89,0,0,0-1,.35c-.71.31-1.39.71-2.09,1A2.63,2.63,0,0,0,60.47,58.63Z"/><path class="cls-18" d="M54.62,60.33h0a2.38,2.38,0,0,0-1,1.39,3.6,3.6,0,0,0-.11,1.06c.13-.42.22-.74.32-1a3.13,3.13,0,0,1,1-1.37L55,60.3l.31-.28A2.38,2.38,0,0,0,54.62,60.33Zm-.09.24a4.89,4.89,0,0,0-.81,1.19c0,.09-.09.18-.13.28a2,2,0,0,1,.07-.31,2,2,0,0,1,1-1.37l.06,0,0,0C54.64,60.44,54.63,60.47,54.53,60.57Z"/><path class="cls-18" d="M59.12,58.7h0l-.43.12h0Z"/><path class="cls-18" d="M59.37,58.6h0l-.19.07h0Z"/><path class="cls-18" d="M59.8,58.44h0l0,0h0Z"/><path class="cls-18" d="M58.48,58.87h0a7.37,7.37,0,0,1-.76.16h0A7.37,7.37,0,0,0,58.48,58.87Z"/><path class="cls-18" d="M59.78,58.44l-.06,0,.31-.13-.23.1Z"/><path class="cls-18" d="M55.75,59.47h0l-.48.18h0A5.27,5.27,0,0,1,55.75,59.47Z"/><path class="cls-18" d="M59.37,58.6l-.1,0,.26-.09h0Z"/><path class="cls-18" d="M59.53,58.55l.07,0-.05,0Z"/><path class="cls-18" d="M60.52,58.11l.12-.06-.08,0-.26.13.1,0Z"/><path class="cls-18" d="M59.52,58.55h0l-.15.05h0Z"/><path class="cls-18" d="M59.78,58.44h0l-.06,0h0Z"/><path class="cls-18" d="M59.6,58.52h0l-.05,0h0Z"/><path class="cls-18" d="M60,58.34h0l-.23.09h0Z"/><path class="cls-18" d="M56.35,59.28c.45-.1.91-.17,1.37-.25l-.78.13-.59.12a2.61,2.61,0,0,0-.27.06h0l-.06,0Z"/><path class="cls-18" d="M56,59.38h0a2.34,2.34,0,0,0-.24.09h0A1.7,1.7,0,0,1,56,59.38Z"/><path class="cls-18" d="M55.26,59.65l0,0-.08,0h0l.1,0Z"/><path class="cls-18" d="M59.12,58.7l-.43.13-.21,0,.17,0Z"/><path class="cls-18" d="M59.18,58.67l.09,0,.1,0Z"/><path class="cls-18" d="M59.78,58.44h0Z"/><path class="cls-18" d="M53.47,64.35a3.77,3.77,0,0,1-.45,1l-.05.09a.16.16,0,0,0,0,.09.31.31,0,0,0,0,.09.37.37,0,0,0,0,.09.19.19,0,0,0,0,.12,3.65,3.65,0,0,0-.06.94,3.81,3.81,0,0,1,.43-1.19l.08-.11a2,2,0,0,0,.27-.77A2.26,2.26,0,0,0,53.47,64.35Zm-.12.76a1.55,1.55,0,0,1-.15.32l-.13.2s-.14.25-.22.42a1.11,1.11,0,0,1,.12-.51.59.59,0,0,1,.1-.17s0,0,0-.05.28-.53.29-.53A1.53,1.53,0,0,1,53.35,65.11Z"/><path class="cls-18" d="M53.22,69.43a.08.08,0,0,0-.09,0s0,1.25.09,1.59a3.26,3.26,0,0,0,.18.7.07.07,0,0,0,.08,0s-.07-1.21-.08-1.32a4.61,4.61,0,0,0-.18-.92Z"/><path class="cls-18" d="M54.69,60.36a2,2,0,0,0-1,1.37,2,2,0,0,0-.07.31c0-.1.09-.19.13-.28a4.89,4.89,0,0,1,.81-1.19c.1-.1.11-.13.18-.19l0,0Z"/><path class="cls-18" d="M53.11,65.32s0,0,0,.05a.59.59,0,0,0-.1.17,1.11,1.11,0,0,0-.12.51c.08-.17.22-.42.22-.42l.13-.2a1.55,1.55,0,0,0,.15-.32,1.53,1.53,0,0,0,0-.32S53.15,65.25,53.11,65.32Z"/><path class="cls-18" d="M53.14,62.89Z"/><path class="cls-18" d="M53.12,63.63h0v.17h0A1.09,1.09,0,0,1,53.12,63.63Z"/><rect class="cls-18" x="53.12" y="64.32"/><path class="cls-18" d="M53.12,64.32h0v0Z"/><path class="cls-18" d="M53.12,63.63a1.09,1.09,0,0,0,0,.18c0-.27,0-.54,0-.81C53.12,63.22,53.12,63.44,53.12,63.63Z"/><path class="cls-18" d="M53.14,62.89h0s0,.07,0,.1S53.13,62.93,53.14,62.89Z"/><path class="cls-18" d="M54.05,61v0h0Z"/><path class="cls-18" d="M53.89,61.29a2.13,2.13,0,0,1,.16-.25,1.64,1.64,0,0,0-.16.26Z"/><path class="cls-18" d="M54.17,60.88h0l-.11.14Z"/><path class="cls-18" d="M53.08,65.48l0,0,0,0Z"/><path class="cls-19" d="M55,73.61l0,0Z"/><path class="cls-19" d="M66.59,73.65l-.38.11-.27.07.07,0,.2,0,.38-.11.26-.07Z"/><path class="cls-19" d="M53.56,70.5c0,.19,0,.38,0,.56s0,.26,0,.39h0C53.61,71.15,53.59,70.83,53.56,70.5Z"/><path class="cls-19" d="M69.8,69.22a7.65,7.65,0,0,1-.18-1.43c0-.85,0-1.77-.05-2.62A5,5,0,0,0,69.09,63h0C69.92,64.44,69.36,67.38,69.8,69.22Z"/><path class="cls-19" d="M53.7,71.7h0a3,3,0,0,0,.11.4h0A3,3,0,0,1,53.7,71.7Z"/><path class="cls-19" d="M59.94,75.55a2.2,2.2,0,0,0,.36.13,3.41,3.41,0,0,0,.73.07h0A2.87,2.87,0,0,1,59.94,75.55Z"/><path class="cls-19" d="M62.92,57.75a3.2,3.2,0,0,1,.59-.08h0a3.2,3.2,0,0,0-.59.08Z"/><path class="cls-20" d="M65.17,58.55l-.25-.32a1.35,1.35,0,0,0-.5-.4,1.76,1.76,0,0,0-.58-.14l-.13,0h0l-.17,0a3.2,3.2,0,0,0-.59.08h-.05a7.22,7.22,0,0,0-.77.27l-.05,0c-.17.07-.37.17-.56.27s-.25.11-.39.19l-.78.37a8.54,8.54,0,0,1-1.15.44l-.32.1c-.9.25-1.58.28-2.36.45h0l-.1,0a.31.31,0,0,1-.13,0h0a4,4,0,0,0-.81.3,3,3,0,0,0-1.24,1.08,2.55,2.55,0,0,0-.33.81,3.35,3.35,0,0,0-.08.51,4.79,4.79,0,0,0,0,.64c0,.24,0,.47,0,.7a3.42,3.42,0,0,1-.08.84,2.58,2.58,0,0,1-.4.87,1,1,0,0,0-.13.3,2.44,2.44,0,0,0-.08.34A5.39,5.39,0,0,0,53,67c0,.15,0,.29,0,.44a4.07,4.07,0,0,0,.09.87,1.45,1.45,0,0,0,.11.37c.08.23.15.45.2.66h0a7.9,7.9,0,0,1,.16,1.21c0,.33,0,.65.1,1,0,.09,0,.17,0,.25a3,3,0,0,0,.11.4v0l0,0c0,.1.09.19.13.28l.1.2s.07.09.1.14l.05.06c.08.1.14.2.23.3a2.87,2.87,0,0,0,.53.45l0,0a4.73,4.73,0,0,0,1.24.53c.24.07.48.13.73.18l.87-1.53,6.59-11.53,1.17-2C65.46,59,65.32,58.76,65.17,58.55Z"/><path class="cls-19" d="M69.09,63a6.86,6.86,0,0,0-1.43-1.66l-.74-.61c-.22-.18-.42-.34-.57-.48l0,0h0a6.19,6.19,0,0,1-.72-1l-1.17,2L57.85,72.79,57,74.32a5.06,5.06,0,0,1,2.28.85,1.76,1.76,0,0,0,.68.38,2.87,2.87,0,0,0,1.12.2,3.86,3.86,0,0,0,.74-.1,3.75,3.75,0,0,0,.43-.16,3.38,3.38,0,0,0,.41-.24,8.64,8.64,0,0,1,1.61-.88c.26-.1.52-.2.78-.28l.78-.23h0l.13,0,.27-.07.38-.11.26-.07.25-.07h0a3.63,3.63,0,0,0,1.5-1.13,6.82,6.82,0,0,0,.85-1.24,2.61,2.61,0,0,0,.36-1.8s0-.08,0-.12C69.36,67.38,69.92,64.44,69.09,63Z"/><path class="cls-19" d="M64.42,57.83a1.35,1.35,0,0,1,.5.4,1.51,1.51,0,0,0-.5-.41,2,2,0,0,0-.58-.13h0A1.76,1.76,0,0,1,64.42,57.83Z"/><path class="cls-19" d="M69.09,63h0a6.86,6.86,0,0,0-1.43-1.66A6.86,6.86,0,0,1,69.09,63Z"/><polygon class="cls-19" points="53.4 69.29 53.4 69.29 53.4 69.29 53.4 69.29"/><path class="cls-19" d="M58.21,59.58c-.61.12-1.13.18-1.71.3h0c.78-.17,1.46-.2,2.36-.45l.32-.1-.32.1Z"/><path class="cls-19" d="M53.08,66.34A5.39,5.39,0,0,0,53,67,5.39,5.39,0,0,1,53.08,66.34Z"/><path class="cls-19" d="M53.69,64.83a3.42,3.42,0,0,0,.08-.84h0A3.42,3.42,0,0,1,53.69,64.83Z"/><path class="cls-19" d="M61.1,58.52l-.65.32-.13,0,.78-.37c.14-.08.26-.13.39-.19h0C61.36,58.39,61.24,58.44,61.1,58.52Z"/><path class="cls-19" d="M58.21,59.58c-.61.12-1.13.18-1.71.3h0C57.08,59.76,57.6,59.7,58.21,59.58Z"/><path class="cls-19" d="M66.35,60.25l0,0h0Z"/><path class="cls-19" d="M65.81,73.86l.2,0-.07,0Z"/><path class="cls-19" d="M53.2,68.63c.08.23.15.45.2.66h0c0-.21-.12-.43-.2-.66a1.45,1.45,0,0,1-.11-.37A1.45,1.45,0,0,0,53.2,68.63Z"/><path class="cls-19" d="M66.59,73.65l.51-.14-.25.07Z"/><path class="cls-19" d="M65,74.09l.78-.23h0Z"/><path class="cls-19" d="M53.83,72.16h0c0,.1.09.19.13.28h0C53.92,72.35,53.87,72.26,53.83,72.16Z"/><path class="cls-19" d="M61.49,58.33h0a3.49,3.49,0,0,0-.39.19l-.65.32.65-.32C61.24,58.44,61.36,58.39,61.49,58.33Z"/><path class="cls-19" d="M54.16,72.78l.05.06-.05-.06Z"/><path class="cls-19" d="M63.84,57.69l-.13,0,.13,0Z"/><path class="cls-19" d="M53.77,64c0-.23,0-.46,0-.7,0,.24,0,.47,0,.7Z"/><path class="cls-19" d="M56.48,59.89l-.23,0a.31.31,0,0,0,.13,0l.1,0h0Z"/><path class="cls-19" d="M53.16,66a1,1,0,0,1,.13-.3h0A1,1,0,0,0,53.16,66Z"/><path class="cls-19" d="M63.68,57.65l-.18,0h0Z"/><path class="cls-19" d="M53.66,71.45h0c0,.09,0,.17,0,.25h0C53.69,71.62,53.67,71.54,53.66,71.45Z"/><path class="cls-19" d="M53.81,72.1v0Z"/><path class="cls-19" d="M53.81,72.13l0,0h0Z"/><path class="cls-19" d="M56.5,59.88h0c-.08,0-.16,0-.23.06h0l.23,0Z"/><path class="cls-19" d="M54.06,72.64l-.1-.2h0l.2.34h0S54.08,72.68,54.06,72.64Z"/><path class="cls-19" d="M61.49,58.33h0c.19-.1.39-.2.56-.27h0C61.88,58.13,61.68,58.24,61.49,58.33Z"/><path class="cls-19" d="M62.87,57.76h0a6.42,6.42,0,0,0-.76.27h0A7.22,7.22,0,0,1,62.87,57.76Z"/><path class="cls-19" d="M61.49,58.33c.19-.09.39-.2.56-.27h0c-.17.07-.37.18-.56.27Z"/><path class="cls-19" d="M62.05,58.06l.05,0h0l0,0Z"/><path class="cls-19" d="M62.06,58.05h0Z"/><path class="cls-9" d="M61.35,68.2a.28.28,0,0,1,.18,0,.48.48,0,0,1,.24.18l0,.11a.26.26,0,0,1,0,.23l0,.09a.27.27,0,0,1-.18.15,5.17,5.17,0,0,0-2,.94l-.15.16-.22.4a.92.92,0,0,0,0,.52.66.66,0,0,0,.52.47,2.16,2.16,0,0,0,1.2,0,3.43,3.43,0,0,0,1.84-1.13,1.65,1.65,0,0,0,.4-1.54,1.43,1.43,0,0,0-.12-.31,1.57,1.57,0,0,0-.21-.28,2.7,2.7,0,0,0-.75-.55l-.95-.51-.82,1.42a8,8,0,0,1,.78-.24Z"/><path class="cls-9" d="M62,64.77l-.28.06a.29.29,0,0,1-.16,0c-.08,0-.22-.13-.25-.22l0-.1a.23.23,0,0,1,0-.18c0-.08.13-.22.22-.24a2.81,2.81,0,0,0,1.18-.58.54.54,0,0,0,.23-.61.37.37,0,0,0-.28-.27,1.53,1.53,0,0,0-.77.06,2.36,2.36,0,0,0-1.28.79,1.19,1.19,0,0,0-.29,1.08,1.06,1.06,0,0,0,.33.5,3.61,3.61,0,0,0,.86.63l.28.15.7-1.23a1.82,1.82,0,0,1-.28.11Z"/><path class="cls-9" d="M59.16,70.48l.22-.4A1.06,1.06,0,0,0,59.16,70.48Z"/><path class="cls-18" d="M59.53,69.92a5.17,5.17,0,0,1,2-.94.27.27,0,0,0,.18-.15l0-.09a.26.26,0,0,0,0-.23l0-.11a.48.48,0,0,0-.24-.18.28.28,0,0,0-.18,0l-.3.09a8,8,0,0,0-.78.24l-.89,1.55Z"/><path class="cls-21" d="M63.48,61.67a2.87,2.87,0,0,0-1.51.09,4.6,4.6,0,0,0-2.34,1.38A2.17,2.17,0,0,0,59,65.2a2,2,0,0,0,.57.92,3.75,3.75,0,0,0,1,.73l.47.26.72-1.28-.28-.15a3.61,3.61,0,0,1-.86-.63,1.06,1.06,0,0,1-.33-.5,1.19,1.19,0,0,1,.29-1.08,2.36,2.36,0,0,1,1.28-.79,1.53,1.53,0,0,1,.77-.06.37.37,0,0,1,.28.27.54.54,0,0,1-.23.61,2.81,2.81,0,0,1-1.18.58c-.09,0-.19.16-.22.24a.23.23,0,0,0,0,.18l0,.1c0,.09.17.18.25.22a.29.29,0,0,0,.16,0l.28-.06.2-.06a1.82,1.82,0,0,0,.28-.11L64,62A1.19,1.19,0,0,0,63.48,61.67Z"/><path class="cls-18" d="M64,62,62.51,64.6a3.62,3.62,0,0,0,1.39-.76,1.35,1.35,0,0,0,.46-1.33A1.09,1.09,0,0,0,64,62Z"/><path class="cls-18" d="M62,67.62a2.7,2.7,0,0,1,.75.55,1.57,1.57,0,0,1,.21.28,1.43,1.43,0,0,1,.12.31,1.65,1.65,0,0,1-.4,1.54,3.43,3.43,0,0,1-1.84,1.13,2.16,2.16,0,0,1-1.2,0,.66.66,0,0,1-.52-.47.92.92,0,0,1,0-.52l-.95,1.65a2,2,0,0,0,.59.26,4.32,4.32,0,0,0,2.14-.11,6.12,6.12,0,0,0,1.74-.78A5,5,0,0,0,64,70.27a3.57,3.57,0,0,0,.51-1.08,2.19,2.19,0,0,0,0-1.08,2.4,2.4,0,0,0-.52-.94,3.27,3.27,0,0,0-.94-.69l-1.19-.65-.72,1.28Z"/><path class="cls-21" d="M59.38,70.08l.89-1.55a6.43,6.43,0,0,0-2,1,1.68,1.68,0,0,0-.71,1.77,1.4,1.4,0,0,0,.62.83l.95-1.65A1.06,1.06,0,0,1,59.38,70.08Z"/></g></g></svg>