<svg xmlns="http://www.w3.org/2000/svg" viewBox="0 0 50.51 64"><defs><style>.cls-1{fill:#514949;}</style></defs><g id="レイヤー_2" data-name="レイヤー 2"><g id="_1" data-name="1"><path class="cls-1" d="M25.25,0A25.28,25.28,0,0,0,0,25.25C0,42.12,15,55.85,21.43,61l3.82,3,3.82-3c6.45-5.14,21.44-18.9,21.44-35.71A25.28,25.28,0,0,0,25.25,0ZM44.37,25.25c0,14.13-13.32,26.29-19.12,30.91C19.44,51.55,6.13,39.43,6.13,25.25a19.12,19.12,0,0,1,38.24,0Z"/><path class="cls-1" d="M13,21.91h0v0L14,23.35l.6.81V36.08h0v0H35.89V24.16l.61-.81,1.06-1.42L25.25,12.77ZM32.33,32.54h-4V25.26H22.16v7.28h-4V22.47l.94-.69,6.14-4.57,6.15,4.57.93.69V32.53Z"/></g></g></svg>