<svg xmlns="http://www.w3.org/2000/svg" viewBox="0 0 616.62 72.53"><defs><style>.cls-1{fill:#514949;}</style></defs><g id="レイヤー_2" data-name="レイヤー 2"><g id="レイヤー_1-2" data-name="レイヤー 1"><path class="cls-1" d="M32.78,16.86V70a1,1,0,0,1-1,1h-16a1,1,0,0,1-1-1V16.86H1a1,1,0,0,1-1-1V2.56a1,1,0,0,1,1-1H46.56a1,1,0,0,1,1,1v13.3a1,1,0,0,1-1,1Z"/><path class="cls-1" d="M72,51.29A1,1,0,0,1,73.57,51c3.83,3.31,9.23,6.24,15,6.24,3.65,0,5.83-1.15,7-2.4a6.2,6.2,0,0,0,1.76-4.37,5.44,5.44,0,0,0-2-4.16c-1.77-1.56-4.48-2.29-9-3.64l-4.69-1.46c-2.91-.94-7.18-2.5-10-5.62-3.53-3.85-4-8.74-4-12.28,0-8.53,3.33-13.74,6.35-16.75C77.64,3,83.46,0,91.89,0a48.59,48.59,0,0,1,20.55,5.16,1,1,0,0,1,.43,1.36l-6.18,12.09a1,1,0,0,1-1.46.36c-5-3.62-8.69-4-10.94-4a8.64,8.64,0,0,0-5.94,2.08,5.12,5.12,0,0,0-1.76,3.74,4.66,4.66,0,0,0,.93,3.13c.52.62,1.77,1.87,6,3.12l5.51,1.66c4.37,1.35,9,2.92,12.6,6.87,3.53,3.75,4.47,7.6,4.47,12.38,0,6.35-1.56,12.49-6.56,17.49-5.93,5.93-13.11,7.07-20.5,7.07a37,37,0,0,1-13.63-2.29,47.4,47.4,0,0,1-9.76-5,1,1,0,0,1-.33-1.3Z"/><path class="cls-1" d="M157,1.56a1,1,0,0,1,1,1V42.67c0,2.91.1,7.39,3.54,10.72a12.79,12.79,0,0,0,16.86.31c4.16-3.64,4.05-8.74,4.05-12.59V2.56a1,1,0,0,1,1-1h16a1,1,0,0,1,1,1V41.42c0,7.28-.32,14.88-7.81,22.48-5.83,5.93-13.11,8.63-22.89,8.63-10.93,0-18.73-3.74-23-8.32-6-6.56-6.76-15.4-6.76-22.79V2.56a1,1,0,0,1,1-1Z"/><path class="cls-1" d="M253.72,16.86V70a1,1,0,0,1-1,1h-16a1,1,0,0,1-1-1V16.86H221.94a1,1,0,0,1-1-1V2.56a1,1,0,0,1,1-1H267.5a1,1,0,0,1,1,1v13.3a1,1,0,0,1-1,1Z"/><path class="cls-1" d="M293,51.29a1,1,0,0,1,1.53-.29c3.83,3.31,9.23,6.24,15,6.24,3.65,0,5.83-1.15,7-2.4a6.21,6.21,0,0,0,1.77-4.37,5.42,5.42,0,0,0-2-4.16c-1.77-1.56-4.48-2.29-8.95-3.64l-4.68-1.46c-2.92-.94-7.18-2.5-10-5.62-3.54-3.85-4-8.74-4-12.28,0-8.53,3.33-13.74,6.35-16.75C298.58,3,304.41,0,312.83,0a48.55,48.55,0,0,1,20.55,5.16,1,1,0,0,1,.43,1.36l-6.18,12.09a1,1,0,0,1-1.46.36c-4.95-3.62-8.69-4-10.94-4a8.61,8.61,0,0,0-5.93,2.08,5.13,5.13,0,0,0-1.77,3.74,4.71,4.71,0,0,0,.93,3.13c.52.62,1.77,1.87,6,3.12L320,28.72c4.37,1.35,8.94,2.92,12.59,6.87,3.54,3.75,4.47,7.6,4.47,12.38,0,6.35-1.56,12.49-6.55,17.49-5.94,5.93-13.12,7.07-20.5,7.07a37,37,0,0,1-13.64-2.29,47.67,47.67,0,0,1-9.76-5,1,1,0,0,1-.33-1.3Z"/><path class="cls-1" d="M377.92,1.56a1,1,0,0,1,1,1V42.67c0,2.91.1,7.39,3.54,10.72a12.79,12.79,0,0,0,16.86.31c4.16-3.64,4.06-8.74,4.06-12.59V2.56a1,1,0,0,1,1-1h16a1,1,0,0,1,1,1V41.42c0,7.28-.31,14.88-7.81,22.48-5.82,5.93-13.11,8.63-22.89,8.63-10.93,0-18.73-3.74-23-8.32-6-6.56-6.76-15.4-6.76-22.79V2.56a1,1,0,0,1,1-1Z"/><path class="cls-1" d="M445.52,69.81,456.94,2.39a1,1,0,0,1,1-.83h16.26a1,1,0,0,1,.94.65l13.8,36.4L503.55,2.19a1,1,0,0,1,.93-.63H521a1,1,0,0,1,1,.85L532,69.82a1,1,0,0,1-1,1.15h-16a1,1,0,0,1-1-.87l-5-39.09-16.5,39.35a1,1,0,0,1-.92.61h-5.84a1,1,0,0,1-.93-.63L469.15,31l-5.81,39.11a1,1,0,0,1-1,.85H446.5A1,1,0,0,1,445.52,69.81Z"/><path class="cls-1" d="M573.16,1.56a1,1,0,0,1,1,1V42.67c0,2.91.1,7.39,3.54,10.72a12.77,12.77,0,0,0,16.85.31c4.17-3.64,4.06-8.74,4.06-12.59V2.56a1,1,0,0,1,1-1h16a1,1,0,0,1,1,1V41.42c0,7.28-.32,14.88-7.81,22.48-5.83,5.93-13.11,8.63-22.89,8.63-10.93,0-18.74-3.74-23-8.32-6-6.56-6.77-15.4-6.77-22.79V2.56a1,1,0,0,1,1-1Z"/></g></g></svg>